<svg xmlns="http://www.w3.org/2000/svg" width="680" height="735" viewBox="0 0 680 735" fill="none">
    <g clip-path="url(#clip0_209_8)">
        <path fill-rule="evenodd" clip-rule="evenodd"
            d="M551.212 100.395L535.25 89.0251L525.435 94.8833L518.98 90.287L559.421 66.5962L564.517 70.2298L555.451 116.266L548.957 111.641L551.212 100.395ZM487.492 62.7835L490.79 55.4759L480.955 51.0214L483.846 44.6155L500.024 51.9397L492.371 68.8985L491.609 69.1169C488.922 69.8861 486.096 70.0941 483.316 69.8664C480.471 69.6345 477.692 68.9451 475.089 67.766C471.491 66.1376 468.479 63.7224 466.168 60.5112C463.905 57.3621 462.524 53.8206 462.083 49.9645C461.639 46.0731 462.249 42.307 463.858 38.7417C465.462 35.1889 467.867 32.253 471.079 30.0418C474.274 27.841 477.85 26.5894 481.71 26.2509C485.647 25.9051 489.517 26.608 493.115 28.2364C495.703 29.4093 498.037 31.0201 500.037 33.0408C501.996 35.016 503.588 37.2966 504.729 39.838L505.403 41.3381L499.116 44.4706L498.412 42.7884C497.645 40.9581 496.552 39.3132 495.168 37.8918C493.766 36.4529 492.123 35.3152 490.294 34.487C487.852 33.3804 485.296 32.927 482.626 33.1992C480.002 33.4684 477.597 34.3504 475.432 35.8597C473.258 37.3763 471.647 39.3629 470.559 41.777C469.458 44.2159 469.016 46.7636 469.31 49.4293C469.603 52.067 470.534 54.4707 472.079 56.625C473.652 58.8176 475.685 60.446 478.138 61.5568C479.707 62.2669 481.377 62.6996 483.086 62.8767C484.552 63.0288 486.035 62.9988 487.492 62.7835V62.7835ZM408.663 3.41827C412.559 4.11496 416.095 5.6947 419.143 8.23614C422.107 10.7041 424.321 13.7652 425.707 17.3698C427.097 20.991 427.428 24.8233 426.747 28.6381C426.061 32.4891 424.437 35.9394 421.874 38.896C419.333 41.8267 416.193 43.9665 412.546 45.2801C408.862 46.6062 404.889 46.8868 401.039 46.1984C397.136 45.5006 393.602 43.9054 390.559 41.3474C387.593 38.8515 385.386 35.7572 384.012 32.1257C382.637 28.4859 382.302 24.6391 382.986 20.8109C383.67 16.9733 385.282 13.5354 387.854 10.6037C390.4 7.70197 393.535 5.59635 397.168 4.30751C400.865 2.9959 404.808 2.72882 408.663 3.41827V3.41827ZM329.193 35.7624L346.457 34.4477L346.976 41.3432L322.437 43.2087L319.203 0.551768L326.48 0L329.193 35.7624V35.7624ZM252.302 12.643C256.086 11.5664 260.002 11.438 263.829 12.377C267.575 13.2973 270.905 15.0747 273.726 17.7094C276.578 20.3709 278.525 23.6297 279.589 27.3813C280.655 31.1454 280.704 34.9601 279.693 38.7407C278.688 42.4923 276.803 45.7926 274.099 48.5721C271.329 51.422 267.969 53.362 264.155 54.4459C260.358 55.5256 256.449 55.6447 252.613 54.6819C248.853 53.7399 245.517 51.9252 242.694 49.2636C239.849 46.5783 237.892 43.3081 236.823 39.544C235.759 35.7914 235.708 31.9963 236.738 28.2302C237.756 24.5055 239.656 21.2374 242.356 18.4858C245.137 15.6545 248.496 13.7248 252.302 12.643V12.643ZM191.942 48.5152C190.025 48.0183 188.026 47.9075 186.065 48.156C184.093 48.4044 182.222 49.0255 180.499 50.0173C178.187 51.3506 176.325 53.1467 174.985 55.4635C173.671 57.7358 173.004 60.1944 172.985 62.8208C172.965 65.4812 173.643 67.9564 174.965 70.2619C176.282 72.5559 178.071 74.383 180.372 75.6915C182.653 76.9876 185.117 77.6439 187.739 77.6647C190.414 77.6864 192.905 76.9866 195.219 75.6532C196.925 74.6698 198.39 73.3737 199.596 71.8167C200.822 70.237 201.748 68.472 202.338 66.5589L202.843 64.9253L209.422 66.9533L208.909 68.5931C208.05 71.3416 206.712 73.8872 204.966 76.1739C203.213 78.47 201.071 80.3852 198.567 81.8272C195.152 83.7941 191.444 84.8314 187.499 84.8221C183.636 84.8117 179.974 83.8511 176.612 81.9452C173.213 80.0177 170.536 77.3189 168.592 73.9306C166.679 70.6004 165.68 66.8239 165.764 62.9781C165.85 59.1157 166.9 55.4842 168.855 52.156C170.856 48.7512 173.624 46.0679 177.04 44.101C179.526 42.6683 182.231 41.7376 185.072 41.3381C187.862 40.9436 190.674 41.0441 193.417 41.6993L195.002 42.0772L193.713 48.9738L191.942 48.5152V48.5152ZM116.081 87.26L121.594 82.4722L149.56 114.806L144.048 119.593L116.081 87.26ZM87.1219 129.431C85.4517 130.032 83.8859 130.88 82.4504 131.923C81.1036 132.901 79.8427 134.026 78.8123 135.339C77.6568 136.812 76.584 138.628 76.4196 140.532C76.3091 141.829 76.6481 142.846 77.6878 143.663C78.4867 144.292 79.421 144.737 80.4577 144.674C81.5987 144.603 82.6788 144.271 83.6875 143.736C85.3143 142.872 86.8584 141.853 88.3674 140.795C90.3042 139.438 92.2762 138.105 94.3929 137.042C96.2626 136.104 98.2728 135.651 100.362 135.656C102.857 135.662 105.098 136.738 107.026 138.256C108.915 139.742 110.249 141.652 110.9 143.977C111.559 146.346 111.423 148.786 110.761 151.137C110.016 153.783 108.637 156.193 106.949 158.346C105.1 160.703 102.818 162.619 100.208 164.08C97.6734 165.499 94.9386 166.488 92.0581 166.894L90.7476 167.078L87.9777 160.393L90.1895 160.102C92.4343 159.807 94.5717 159.086 96.5499 157.984C98.4165 156.943 100.1 155.612 101.425 153.925C102.712 152.285 103.907 150.253 104.036 148.124C104.129 146.599 103.662 145.403 102.451 144.45C101.63 143.803 100.628 143.328 99.5616 143.374C98.4258 143.421 97.3592 143.734 96.3618 144.28C94.6988 145.19 93.1165 146.239 91.5569 147.311C89.6252 148.638 87.6656 149.937 85.583 151.021C83.7454 151.977 81.7599 152.435 79.6898 152.428C77.2454 152.419 75.0502 151.382 73.1578 149.892C71.3553 148.473 70.0892 146.652 69.4949 144.425C68.8944 142.176 69.0495 139.86 69.7037 137.641C70.4458 135.129 71.7832 132.836 73.3924 130.787C74.8414 128.939 76.5643 127.33 78.4743 125.97C80.3047 124.669 82.2922 123.577 84.4099 122.827L85.8745 122.307L88.8821 128.798L87.1219 129.431V129.431ZM55.7964 214.95L67.1033 220.751L63.7774 227.257L25.7617 207.754L33.1516 193.303C35.1587 189.378 38.0226 185.707 42.1971 183.98C46.2083 182.319 50.2473 182.943 54.0301 184.881C57.8852 186.858 60.8845 189.81 61.9925 194.104C63.1242 198.492 61.8705 203.07 59.8592 207.003L55.7964 214.95ZM8.86338 262.39L11.8503 251.838L52.9924 263.54L50.0044 274.093L8.86338 262.39V262.39ZM23.9375 332.744L1.59243 319.103L2.45233 307.76L45.1003 311.003L44.3148 321.323L21.6028 319.596L39.5595 330.502L39.0334 337.423L19.6029 345.542L42.3449 347.273L41.5687 357.535L-1.07617 354.292L-0.215234 342.951L23.9375 332.744V332.744ZM18.0329 403.018C17.2536 405.024 16.6862 407.114 16.4051 409.251C16.1819 410.935 16.0785 412.738 16.3793 414.418C16.5705 415.492 16.9395 416.772 17.696 417.589C18.127 418.055 18.5538 418.237 19.1864 418.125C19.7776 418.019 20.2292 417.768 20.5765 417.27C21.0829 416.541 21.4023 415.698 21.5976 414.837C21.9387 413.344 22.1237 411.815 22.2911 410.295C22.5547 407.903 22.9019 405.509 23.5097 403.179C24.0616 401.064 25.1034 399.182 26.5586 397.557C28.2919 395.621 30.6762 394.624 33.1898 394.173C35.7943 393.707 38.3554 393.963 40.7481 395.126C43.1211 396.279 44.9794 398.081 46.3922 400.295C47.9498 402.735 48.881 405.504 49.3864 408.344C49.9662 411.6 49.9145 414.905 49.2717 418.148C48.6495 421.287 47.5446 424.3 45.892 427.044L45.2161 428.166L34.8951 425.194L36.1292 423.262C37.4697 421.163 38.434 418.874 38.989 416.446C39.4644 414.362 39.6825 412.149 39.3052 410.033C39.0748 408.743 38.6293 407.221 37.7002 406.258C37.1162 405.653 36.5116 405.407 35.6744 405.556C35.0698 405.665 34.5871 405.909 34.2306 406.422C33.7283 407.143 33.4265 407.986 33.2497 408.843C32.9324 410.377 32.7588 411.94 32.5903 413.495C32.333 415.868 31.9971 418.237 31.4255 420.557C30.9098 422.657 29.8887 424.53 28.4583 426.148C26.7498 428.078 24.3985 429.08 21.9046 429.525C19.4106 429.97 16.9529 429.733 14.6533 428.639C12.3361 427.535 10.5274 425.765 9.14243 423.622C7.58179 421.204 6.65574 418.441 6.15344 415.618C5.67181 412.925 5.60153 410.182 5.91572 407.466C6.21545 404.866 6.83454 402.301 7.85981 399.89L8.43756 398.53L18.7306 401.226L18.0329 403.018V403.018ZM41.0199 490.015L46.8873 487.698L39.8768 469.89L49.1745 466.217L56.185 484.025L62.2085 481.648L54.1469 461.166L63.4467 457.493L75.5267 488.18L35.7385 503.894L23.9065 473.835L33.2053 470.162L41.0199 490.015V490.015ZM541.712 85.143L552.738 92.9982L556.065 76.5497L541.712 85.143ZM407.505 10.2351C404.917 9.77239 402.285 9.96908 399.808 10.8594C397.333 11.7476 395.222 13.1865 393.498 15.1762C391.762 17.1783 390.688 19.4982 390.223 22.1059C389.76 24.7157 389.976 27.3234 390.896 29.8099C391.817 32.2986 393.291 34.4115 395.312 36.1268C397.347 37.8525 399.685 38.9322 402.307 39.4012C404.877 39.8608 407.461 39.6455 409.914 38.7407C412.393 37.8266 414.499 36.3483 416.215 34.339C417.952 32.3089 419.041 29.9714 419.509 27.343C419.971 24.755 419.76 22.169 418.83 19.7063C417.904 17.2497 416.432 15.1627 414.427 13.4702C412.414 11.7693 410.097 10.6989 407.505 10.2351V10.2351ZM254.243 19.2787C251.682 20.0086 249.457 21.3067 247.594 23.2146C245.759 25.0987 244.491 27.3213 243.811 29.8638C243.124 32.428 243.176 34.9839 243.899 37.5316C244.626 40.101 245.94 42.3184 247.868 44.1621C249.785 45.9944 252.034 47.2481 254.601 47.9023C257.178 48.5597 259.765 48.5069 262.321 47.7791C264.856 47.0576 267.047 45.7512 268.872 43.8484C270.703 41.9364 271.947 39.6869 272.613 37.1258C273.286 34.5429 273.241 31.9601 272.513 29.3948C271.791 26.8451 270.496 24.6442 268.567 22.8254C266.659 21.0241 264.421 19.7932 261.879 19.1524C259.326 18.5075 256.773 18.5593 254.243 19.2787V19.2787ZM35.2321 204.4L49.652 211.799L53.6394 204.001C54.8269 201.678 55.7685 198.872 55.1742 196.247C54.6409 193.885 52.9666 192.358 50.8819 191.287C48.8572 190.249 46.7106 189.804 44.5577 190.752C42.1175 191.826 40.3967 194.299 39.2184 196.603L35.2321 204.4Z"
            fill="#B56D6D"></path>
        <path fill-rule="evenodd" clip-rule="evenodd"
            d="M551.881 100.127L535.271 88.296L525.456 94.1543L520.096 90.3375L559.38 67.3237L563.834 70.4987L555.027 115.219L549.625 111.372L551.881 100.127V100.127ZM487.904 63.336L491.591 55.1703L481.756 50.7158L484.143 45.4248L499.209 52.2448L491.923 68.3879L491.433 68.5287C488.815 69.2761 486.067 69.479 483.359 69.2574C480.579 69.0318 477.875 68.3589 475.332 67.2077C471.832 65.6228 468.907 63.2812 466.657 60.1538C464.451 57.0865 463.112 53.6516 462.682 49.8938C462.25 46.1101 462.842 42.462 464.407 38.993C465.965 35.5406 468.295 32.6938 471.416 30.5447C474.528 28.4028 477.999 27.1896 481.756 26.8593C485.599 26.5219 489.344 27.2051 492.856 28.7941C495.379 29.937 497.644 31.5012 499.597 33.4702C501.505 35.3967 503.051 37.6121 504.165 40.0883L504.598 41.0531L499.42 43.6329L498.966 42.5521C498.168 40.6473 497.039 38.9434 495.598 37.4651C494.14 35.9702 492.438 34.7901 490.538 33.9288C487.996 32.7776 485.335 32.3077 482.557 32.5913C479.826 32.8698 477.328 33.787 475.075 35.3584C472.809 36.9392 471.13 39.0086 469.994 41.5241C468.847 44.0656 468.389 46.7209 468.697 49.4963C469.001 52.2417 469.967 54.7396 471.576 56.9819C473.212 59.2625 475.327 60.9592 477.879 62.1135C479.509 62.8526 481.24 63.2998 483.017 63.4841C484.643 63.6518 486.292 63.6052 487.904 63.336V63.336ZM408.548 4.01947C412.342 4.69856 415.778 6.23171 418.745 8.70483C421.631 11.1096 423.779 14.0776 425.129 17.589C426.483 21.116 426.801 24.8158 426.139 28.5302C425.471 32.2766 423.9 35.6193 421.406 38.4951C418.931 41.3502 415.884 43.4248 412.332 44.7033C408.729 46.0014 404.902 46.2685 401.139 45.5956C397.338 44.9176 393.906 43.3699 390.945 40.8792C388.054 38.4475 385.914 35.4464 384.576 31.9091C383.237 28.3635 382.913 24.6492 383.579 20.9193C384.243 17.1884 385.805 13.856 388.305 11.0061C390.786 8.17894 393.825 6.13854 397.364 4.88283C400.977 3.60021 404.781 3.34554 408.548 4.01947V4.01947ZM328.623 36.4174L345.887 35.1027L346.315 40.7788L322.992 42.5531L319.85 1.11466L325.909 0.655029L328.623 36.4174V36.4174ZM252.462 13.2297C256.154 12.18 259.942 12.0537 263.676 12.9709C267.324 13.8674 270.554 15.59 273.303 18.1563C276.074 20.7433 277.959 23.9017 278.994 27.5477C280.032 31.2103 280.079 34.905 279.095 38.5831C278.117 42.2364 276.289 45.4372 273.655 48.1453C270.957 50.9197 267.693 52.8017 263.981 53.8576C260.278 54.9105 256.493 55.0264 252.753 54.0895C249.092 53.1703 245.854 51.4114 243.105 48.8182C240.337 46.2064 238.442 43.0387 237.403 39.3761C236.369 35.7301 236.318 32.0509 237.318 28.3914C238.311 24.762 240.152 21.5942 242.785 18.9131C245.491 16.1552 248.756 14.2846 252.462 13.2297V13.2297ZM192.088 47.9228C190.089 47.4062 188.026 47.2892 185.979 47.5491C183.926 47.8089 181.984 48.4538 180.188 49.488C177.781 50.8742 175.843 52.7448 174.449 55.1558C173.08 57.5233 172.387 60.0803 172.367 62.8153C172.346 65.5856 173.052 68.1663 174.429 70.566C175.8 72.9552 177.666 74.861 180.064 76.2234C182.437 77.5733 184.998 78.2555 187.727 78.2762C190.512 78.2979 193.106 77.5702 195.515 76.183C197.293 75.1582 198.813 73.8134 200.071 72.1923C201.344 70.5515 202.302 68.7274 202.914 66.7398L203.239 65.6901L208.649 67.3558L208.319 68.4106C207.48 71.0929 206.178 73.5701 204.474 75.801C202.768 78.035 200.692 79.8953 198.256 81.298C194.932 83.2121 191.333 84.2194 187.493 84.21C183.731 84.2007 180.179 83.269 176.904 81.4129C173.6 79.5392 171.004 76.9211 169.112 73.626C167.243 70.3734 166.283 66.7471 166.367 62.9913C166.45 59.2294 167.469 55.7076 169.374 52.4663C171.322 49.1505 174.01 46.5459 177.336 44.6298C179.758 43.2343 182.383 42.3326 185.149 41.9424C187.866 41.5604 190.595 41.6598 193.268 42.2933L194.287 42.5366L193.225 48.2178L192.088 47.9228V47.9228ZM116.934 87.3208L121.525 83.3342L148.691 114.745L144.1 118.73L116.934 87.3208ZM86.9075 128.856C85.1815 129.476 83.5671 130.349 82.084 131.428C80.6918 132.439 79.3895 133.604 78.325 134.961C77.0909 136.534 75.9788 138.449 75.8042 140.479C75.675 141.984 76.0998 143.197 77.3028 144.144C78.2258 144.871 79.2903 145.357 80.4871 145.283C81.716 145.209 82.8788 144.853 83.965 144.276C85.6114 143.4 87.1824 142.366 88.71 141.296C90.6148 139.961 92.5754 138.634 94.658 137.589C96.444 136.693 98.3581 136.263 100.353 136.267C102.706 136.273 104.822 137.304 106.641 138.736C108.429 140.144 109.688 141.942 110.303 144.143C110.933 146.401 110.797 148.728 110.166 150.97C109.444 153.539 108.101 155.877 106.461 157.968C104.661 160.264 102.446 162.123 99.9022 163.547C97.4331 164.93 94.7727 165.894 91.9656 166.288L91.1233 166.407L88.8392 160.895L90.2613 160.708C92.5868 160.402 94.7903 159.66 96.8388 158.518C98.7767 157.437 100.521 156.055 101.897 154.302C103.265 152.557 104.5 150.422 104.638 148.16C104.742 146.436 104.19 145.046 102.821 143.969C101.875 143.224 100.754 142.71 99.5291 142.763C98.2971 142.813 97.1406 143.152 96.0615 143.744C94.382 144.662 92.7801 145.724 91.2039 146.807C89.2939 148.118 87.3498 149.408 85.2941 150.477C83.5423 151.388 81.6561 151.824 79.6851 151.817C77.3793 151.807 75.3101 150.815 73.5273 149.412C71.8282 148.073 70.6365 146.366 70.0763 144.267C69.5058 142.126 69.6598 139.925 70.282 137.814C71.0003 135.376 72.3036 133.153 73.8642 131.164C75.2781 129.362 76.9555 127.796 78.8211 126.468C80.6039 125.199 82.5397 124.133 84.6058 123.402L85.5474 123.068L88.0392 128.449L86.9075 128.856V128.856ZM54.967 215.215L66.2739 221.015L63.5051 226.434L26.5757 207.489L33.6875 193.581C35.6233 189.794 38.388 186.214 42.4229 184.544C46.2656 182.953 50.1228 183.57 53.7433 185.426C57.4413 187.321 60.3321 190.135 61.3935 194.257C62.4912 198.511 61.2561 202.917 59.3089 206.723L54.967 215.215V215.215ZM9.60805 261.969L12.2642 252.592L52.2312 263.96L49.576 273.337L9.60805 261.969ZM25.2651 332.843L2.22237 318.774L3.00683 308.415L44.4363 311.567L43.7448 320.667L19.0949 318.792L38.9141 330.829L38.4459 337.003L17.0134 345.959L41.6829 347.837L40.9977 356.88L-0.429688 353.727L0.356836 343.369L25.2651 332.843V332.843ZM17.4567 402.795C16.6568 404.848 16.0801 406.985 15.7917 409.17C15.5612 410.913 15.4599 412.786 15.771 414.524C15.985 415.725 16.3953 417.093 17.2407 418.005C17.8144 418.625 18.4479 418.875 19.2861 418.726C20.0375 418.592 20.6287 418.25 21.069 417.62C21.6219 416.826 21.9723 415.912 22.1862 414.972C22.5304 413.46 22.7206 411.902 22.8901 410.362C23.1505 408.004 23.4926 405.629 24.0921 403.333C24.6202 401.311 25.6134 399.519 27.0056 397.966C28.6458 396.134 30.9134 395.199 33.2895 394.774C35.7669 394.33 38.1978 394.57 40.4747 395.675C42.7464 396.78 44.5179 398.504 45.8698 400.623C47.3849 402.997 48.2862 405.691 48.7771 408.452C49.3456 411.64 49.2949 414.854 48.6655 418.028C48.0578 421.102 46.9798 424.042 45.3623 426.728L44.9272 427.45L35.8424 424.833L36.6351 423.591C38.0149 421.429 39.004 419.082 39.5755 416.581C40.0696 414.418 40.2897 412.124 39.898 409.925C39.6448 408.504 39.1538 406.893 38.1306 405.833C37.4041 405.08 36.5969 404.768 35.5602 404.955C34.7933 405.091 34.1732 405.426 33.7226 406.072C33.1717 406.864 32.8379 407.779 32.6436 408.719C32.3221 410.271 32.1464 411.855 31.9759 413.429C31.7217 415.77 31.3899 418.121 30.8256 420.409C30.3326 422.416 29.36 424.197 27.9937 425.742C26.3793 427.567 24.1437 428.503 21.7883 428.923C19.4194 429.346 17.0929 429.125 14.908 428.086C12.6932 427.031 10.9713 425.337 9.64732 423.289C8.13009 420.939 7.23607 418.251 6.74618 415.51C6.27592 412.875 6.2077 410.195 6.51363 407.536C6.80819 404.994 7.40971 402.487 8.41328 400.129L8.78432 399.256L17.9043 401.643L17.4567 402.795V402.795ZM40.668 490.809L47.6712 488.043L40.6607 470.234L48.8226 467.009L55.8331 484.818L62.9935 481.992L54.9319 461.51L63.0937 458.286L74.7262 487.835L36.0749 503.1L24.6905 474.179L32.8534 470.956L40.668 490.809V490.809ZM540.588 85.0993L553.141 94.0404L556.93 75.3145L540.588 85.0993ZM407.604 9.63342C404.899 9.14997 402.185 9.35287 399.595 10.2835C397.018 11.208 394.824 12.7039 393.029 14.7743C391.219 16.8613 390.099 19.2806 389.615 21.998C389.13 24.7227 389.354 27.4256 390.315 30.0229C391.273 32.612 392.806 34.8067 394.911 36.5934C397.028 38.3895 399.461 39.5148 402.192 40.0024C404.88 40.4827 407.554 40.2591 410.117 39.314C412.698 38.3616 414.884 36.8274 416.673 34.7363C418.48 32.6224 419.614 30.1886 420.102 27.4504C420.585 24.7454 420.366 22.0622 419.394 19.4897C418.43 16.9327 416.899 14.765 414.812 13.003C412.714 11.2318 410.305 10.1169 407.604 9.63342V9.63342ZM254.068 18.6905C251.403 19.4483 249.087 20.8013 247.151 22.7878C245.239 24.7496 243.922 27.0591 243.214 29.7062C242.5 32.378 242.55 35.0416 243.304 37.699C244.061 40.374 245.431 42.6836 247.439 44.6049C249.434 46.5118 251.77 47.8141 254.443 48.4953C257.128 49.1806 259.818 49.1247 262.481 48.3669C265.123 47.6143 267.403 46.2551 269.305 44.2706C271.21 42.2829 272.503 39.9454 273.197 37.2798C273.898 34.5882 273.851 31.8998 273.092 29.2269C272.339 26.5695 270.987 24.2765 268.978 22.38C266.991 20.5052 264.666 19.2257 262.021 18.559C259.36 17.8882 256.706 17.94 254.068 18.6905V18.6905ZM34.4027 204.666L49.9089 212.622L54.1743 204.279C55.4331 201.818 56.3912 198.89 55.7628 196.112C55.1871 193.568 53.4043 191.899 51.1522 190.743C48.9601 189.618 46.6305 189.168 44.305 190.191C41.7232 191.329 39.9156 193.884 38.6681 196.324L34.4027 204.666Z"
            fill="#B56D6D"></path>
        <path fill-rule="evenodd" clip-rule="evenodd"
            d="M93.0845 543.912C92.2525 544.181 91.3854 544.316 90.509 544.316C85.8797 544.316 82.127 540.557 82.127 535.921C82.127 531.285 85.8797 527.526 90.509 527.526C95.1371 527.526 98.8889 531.285 98.8889 535.921C98.8889 537.461 98.4724 538.958 97.6786 540.27C99.4418 542.813 101.243 545.332 103.08 547.823C106.714 552.753 110.488 557.578 114.4 562.29C144.09 598.033 181.043 626.791 223.072 646.56C265.126 666.343 311.185 676.591 357.636 676.707L358.733 676.71V682.565L357.631 682.561C310.336 682.443 263.412 672.005 220.591 651.864C177.786 631.728 140.147 602.438 109.91 566.033C105.926 561.238 102.079 556.329 98.3794 551.311C96.5789 548.87 94.8137 546.403 93.0845 543.912V543.912ZM606.222 152.435C661.02 218.514 687.363 303.204 679.531 388.761C671.689 474.434 630.559 552.767 564.53 607.791C546.528 622.793 526.941 635.85 506.135 646.621C485.394 657.36 463.508 665.836 440.929 671.796L439.868 672.077L438.377 666.412L439.438 666.131C461.587 660.226 483.089 651.956 503.45 641.415C523.878 630.837 543.115 618.024 560.793 603.293C625.629 549.262 666.01 472.353 673.711 388.228C681.403 304.221 655.56 221.047 601.73 156.177L601.028 155.33L605.52 151.589L606.222 152.435V152.435Z"
            fill="#B56D6D"></path>
        <path fill-rule="evenodd" clip-rule="evenodd"
            d="M405.765 485.103C403.646 499.801 401.862 514.532 400.714 529.343C395.66 594.535 405.038 659.671 420.289 722.965C420.844 725.274 421.518 727.572 422.241 729.836L423.787 734.672L420.119 729.09C417.384 724.931 414.644 720.773 411.962 716.582L411.91 716.503L411.882 716.412C411.101 713.884 410.355 711.343 409.637 708.794C409.438 708.611 409.268 708.403 409.122 708.176C403.773 699.843 398.14 691.697 392.499 683.593C392.42 683.535 392.365 683.484 392.325 683.414C382.384 671.276 371.575 659.856 359.677 649.621C347.652 639.275 334.449 630.451 320.514 622.898C318.49 621.801 316.446 620.735 314.383 619.736C313.303 619.238 312.223 618.736 311.132 618.257L311.016 618.205C310.98 618.193 310.949 618.183 310.924 618.171C310.876 618.155 310.835 618.142 310.794 618.126C310.523 618.037 310.254 617.941 309.983 617.852C308.162 617.257 306.255 616.819 304.558 615.91C304.022 616.815 303.355 617.645 302.577 618.349C298.929 621.652 293.333 622.778 288.825 620.647C285.044 618.857 283.59 614.548 283.487 610.624C283.372 606.125 285.429 601.67 289.828 600.004C293.682 598.547 297.945 600.144 300.841 602.825C301.306 603.256 301.735 603.727 302.119 604.232C303.341 604.112 304.684 604.628 305.15 605.837C305.586 606.96 305.903 608.118 306.029 609.314C306.273 609.477 306.492 609.667 306.684 609.89C306.841 609.981 306.993 610.068 307.142 610.152C307.603 610.381 308.066 610.585 308.549 610.769C309.747 611.223 310.979 611.595 312.199 611.996C315.698 613.154 318.946 614.951 322.194 616.669C329.335 620.445 336.317 624.538 343.027 629.041C352.85 635.632 362.102 643.044 370.772 651.089C367.254 645.389 363.853 639.62 360.609 633.761C355.51 624.553 350.463 615.335 345.506 606.081C344.025 603.766 342.538 601.469 341 599.193C340.86 599.111 340.744 599.015 340.662 598.893C340.125 598.302 339.334 597.903 338.692 597.422C337.869 596.801 337.156 596.055 336.455 595.306C335.048 593.799 333.804 592.153 332.42 590.63C331.82 589.97 331.209 589.33 330.575 588.733C330.056 588.295 329.545 587.862 329.044 587.404C328.998 587.36 328.954 587.319 328.916 587.272C328.643 587.049 328.369 586.829 328.085 586.623C326.501 585.488 324.857 584.467 323.551 582.991C323.273 582.677 323.092 582.301 323.039 581.895C315.024 576.845 306.756 572.143 297.932 568.649C292.711 566.582 287.338 564.909 281.895 563.533C276.275 562.114 270.556 561.138 264.9 559.884C261.592 559.15 258.301 558.352 254.998 557.598C253.113 557.167 251.225 556.763 249.345 556.312C249.189 556.592 249.015 556.862 248.824 557.119C247.208 559.296 244.469 560.507 241.781 560.427C239.271 560.354 237.063 559.231 235.132 557.696C233.416 556.331 232.036 554.602 230.842 552.776C230.329 551.99 229.852 551.179 229.451 550.331C228.906 549.174 228.282 548.099 228.023 546.828C227.706 545.278 227.871 543.596 228.461 542.129C229.248 540.168 231.221 538.891 233.179 538.32C234.251 538.008 235.382 537.945 236.489 538.059C238.311 537.54 240.359 537.645 242.118 538.343C244.42 539.259 246.588 541.063 247.926 543.169C248.603 543.577 249.026 544.231 249.209 545.01C249.679 546.993 250.225 548.98 250.358 551.022C254.997 551.717 259.508 553.029 264.071 554.083C269.837 555.414 275.667 556.451 281.419 557.853C292.687 560.601 303.552 564.723 313.748 570.265C315.748 571.351 317.725 572.482 319.683 573.642C313.385 567.103 306.758 560.884 299.893 554.943C290.343 546.676 280.072 539.321 269.416 532.556C258.552 525.66 247.417 519.177 235.967 513.302C229.528 509.998 223.106 506.651 216.525 503.638C210.08 500.684 203.467 498.058 197.343 494.452C195.599 495.051 193.454 495.066 191.74 494.484C189.659 493.778 187.663 492.387 186.07 490.893C184.476 489.398 183.162 487.506 182.635 485.364C181.943 482.559 182.986 479.743 185.047 477.802C185.209 477.455 185.383 477.117 185.581 476.789C189.73 469.986 200 473.318 201.96 479.984C202.103 480.515 202.199 481.056 202.252 481.603C203.255 482.162 203.981 483.232 203.779 484.422C203.368 486.86 202.534 489.101 201.18 491.138C206.3 493.698 211.626 495.815 216.856 498.13C222.875 500.796 228.726 503.817 234.583 506.82C246.199 512.775 257.606 519.147 268.678 526.073C273.41 529.032 278.087 532.08 282.673 535.263C280.133 532.602 277.641 529.892 275.273 527.074C266.769 516.945 259.759 505.268 255.646 492.654C253.698 486.682 252.976 480.371 250.959 474.431C248.947 474.342 246.868 473.835 245.011 473.114C241.643 471.808 238.167 469.74 236.062 466.731C233.846 463.566 233.462 459.575 234.615 455.927C235.708 452.469 238.057 449.135 241.776 448.287C244.944 447.565 248.151 448.971 250.678 450.798C253.078 452.533 255.136 454.774 256.161 457.577C257.608 457.463 258.936 458.259 259.324 459.79C259.931 462.178 260.667 464.551 260.457 467.051C260.202 470.106 258.429 472.433 255.707 473.632C257.528 478.313 258.453 483.277 259.765 488.113C261.466 494.388 264.098 500.364 267.17 506.079C270.21 511.729 273.709 517.155 277.675 522.198C281.57 527.145 285.899 531.727 290.231 536.288C295.143 541.459 300.101 546.595 304.508 552.191C304.607 552.305 304.677 552.418 304.748 552.544C312.802 559.624 320.514 567.11 327.717 575.061C328.945 576.415 330.166 577.778 331.37 579.15C327.213 571.027 323.14 562.857 319.191 554.628C306.453 528.077 297.306 499.993 290.315 471.416C289.858 469.543 289.403 467.695 288.986 465.86C287.631 462.213 286.204 458.616 284.684 455.035C284.528 454.979 284.386 454.9 284.262 454.795C278.624 450.762 272.336 447.783 266.278 444.455C259.937 440.971 254.013 436.823 248.455 432.196C245.888 430.058 243.388 427.842 240.911 425.6C237.157 427.819 232.006 428.1 228.354 425.545C224.332 422.732 221.91 417.862 223.061 412.95C223.67 410.356 225.342 407.865 227.702 406.57C230.222 405.185 232.998 405.17 235.671 406.096C237.429 406.706 239.12 407.653 240.558 408.848C241.63 408.547 242.832 408.742 243.568 409.656C245.294 411.796 246.303 414.387 246.096 417.163C245.961 418.988 245.364 420.806 244.368 422.347C249.27 426.297 254.101 430.352 259.231 434.009C264.832 438.004 270.972 441.15 276.999 444.432C278.323 445.153 279.64 445.889 280.94 446.653C276.663 437.503 271.885 428.59 266.763 419.887C262.272 412.257 257.585 404.73 252.385 397.562C247.308 390.559 241.667 383.997 235.946 377.521C229.271 369.965 222.586 362.417 216.172 354.638C216.101 354.552 216.038 354.463 215.98 354.368C214.771 354.846 213.435 355.059 212.162 354.771C211.422 354.603 210.761 354.251 210.172 353.781C208.691 353.183 207.322 352.197 206.308 350.966C204.81 349.142 203.981 347.018 203.801 344.665C203.643 342.574 204.146 340.261 205.447 338.581C208.285 334.919 213.173 335.3 216.842 337.315C216.927 337.36 217.01 337.408 217.092 337.456C217.732 337.117 218.471 337.011 219.181 337.254C220.032 337.543 220.811 337.95 221.44 338.623C221.75 338.967 222.037 339.36 222.234 339.815C222.327 340.06 222.423 340.297 222.491 340.548C222.525 340.627 222.548 340.705 222.566 340.784C222.609 340.945 222.621 341.089 222.605 341.217C222.695 341.436 222.819 341.683 222.871 341.855C222.948 342.112 223.014 342.372 223.068 342.653C223.194 343.388 223.24 344.154 223.171 344.897C222.933 347.447 221.764 349.989 219.936 351.811C231.82 365.07 244.377 377.787 255.001 392.119C256.635 394.324 258.22 396.565 259.772 398.828C259.239 395.768 258.728 392.704 258.183 389.645C256.829 382.086 255.716 374.494 255.17 366.827C254.903 363.036 254.645 359.241 254.203 355.467C253.902 355.337 253.602 355.204 253.298 355.088C252.466 354.768 251.627 354.511 250.869 354.025C250.14 353.559 249.443 353.039 248.782 352.478C247.647 351.517 246.815 350.354 245.925 349.178C244.801 347.693 243.916 346.251 243.473 344.418C242.048 338.503 246.701 331.727 252.875 331.346C257.725 331.047 262.181 334.398 263.805 338.88C265.725 341.278 266.205 344.495 265.06 347.36C264.411 348.984 263.93 350.673 262.919 352.126C261.896 353.598 260.526 354.706 258.868 355.352C258.831 355.367 258.796 355.382 258.759 355.396C259.536 362.201 259.754 369.06 260.657 375.852C261.698 383.67 263.387 391.38 264.66 399.161C265.019 401.345 265.533 403.502 266.024 405.658C266.345 407.074 266.895 408.39 266.98 409.856C272.69 419.094 277.886 428.652 282.663 438.408C283.213 439.53 283.753 440.657 284.284 441.789C283.756 438.098 283.326 434.395 283.04 430.676C281.896 415.774 281.472 400.831 280.802 385.906C280.472 378.594 280.37 371.273 280.556 363.96C280.711 357.957 280.588 351.955 280.577 345.954C279.932 345.771 279.408 345.328 279.069 344.694C275.821 338.628 272.847 332.388 268.665 326.885C266.568 324.123 264.334 321.467 262.365 318.607C261.839 317.841 261.315 317.068 260.76 316.321C260.691 316.39 260.621 316.457 260.546 316.523C258.958 317.939 256.752 317.77 254.844 317.261C253.316 316.854 251.996 316.009 250.771 315.03C249.646 314.131 248.511 313.186 247.584 312.076C246.404 310.665 245.342 309.013 244.99 307.18C244.835 306.38 244.672 305.583 244.517 304.785C244.309 303.721 244.382 302.787 244.598 301.735C244.943 300.045 245.7 298.486 246.864 297.206C248.225 295.711 250.521 295.018 252.485 294.882C255.634 294.664 259.201 296.171 261.067 298.752C262.071 300.139 262.65 301.814 262.865 303.466C263.436 305.774 263.883 308.187 263.586 310.569C264.753 311.826 265.706 313.265 266.668 314.682C268.586 317.504 270.738 320.157 272.783 322.887C275.014 325.864 277.1 328.938 278.88 332.21C279.543 333.428 280.175 334.663 280.803 335.9C281.023 331.229 281.343 326.564 281.435 321.889C281.557 315.737 281.459 309.573 282.481 303.482C282.873 301.14 283.425 298.839 284.191 296.595C284.064 296.557 283.936 296.517 283.811 296.473C280.795 295.4 278.653 293.165 277.828 290.053C277.113 287.353 277.535 284.124 279.171 281.822C280.696 279.672 282.964 278.187 285.498 277.51C290.359 276.213 296.432 278.362 297.147 283.904L297.149 283.922C297.665 285.227 297.924 286.584 297.694 287.989C297.181 291.12 295.114 293.923 292.401 295.522C291.854 295.843 291.281 296.117 290.685 296.334C288.613 301.953 288.001 307.857 287.814 313.801C287.614 320.112 287.467 326.425 287.132 332.733C286.757 339.803 286.908 346.884 286.948 353.96C286.988 361.187 286.553 368.41 286.643 375.64C286.645 375.91 286.651 376.181 286.655 376.453C287.447 374.662 288.278 372.888 289.093 371.109C292.738 363.139 296.596 355.27 300.439 347.394C302.15 343.885 303.855 340.372 305.544 336.852C304.048 335.585 302.979 333.901 302.535 331.969C301.719 328.437 303.145 324.869 305.794 322.488C308.289 320.247 311.799 318.813 315.174 319.173C316.998 319.368 318.756 319.93 320.227 321.056C320.96 321.617 321.643 322.244 322.276 322.939C322.689 323.419 323.056 323.953 323.279 324.525C323.408 324.828 323.528 325.136 323.6 325.458C323.698 325.879 323.67 326.264 323.721 326.679C323.742 326.727 323.76 326.78 323.774 326.836C323.846 327.078 323.882 327.328 323.92 327.593C323.979 328.115 324.014 328.638 324.007 329.164C323.992 330.171 323.793 331.211 323.457 332.16C322.731 334.205 321.374 336.059 319.627 337.342C317.91 338.604 315.814 339.458 313.606 339.343C313.501 339.331 313.427 339.305 313.384 339.296C312.3 339.351 311.233 339.272 310.142 339.056C306.944 345.839 303.677 352.587 300.455 359.36C296.863 366.915 293.201 374.459 290.186 382.269C289.422 384.252 288.909 386.322 288.223 388.333C287.958 389.112 287.574 389.84 287.187 390.565C287.156 390.627 287.125 390.688 287.093 390.749C287.513 400.378 288.121 409.998 288.63 419.624C289.01 426.783 289.444 433.947 290.485 441.046C291.478 447.835 292.846 454.563 294.365 461.253C300.742 489.326 308.923 517.21 320.909 543.431C324.792 551.928 328.85 560.343 333.027 568.698C331.039 558.323 330.856 547.667 331.154 537.135C331.415 527.906 331.806 518.702 332.393 509.532C332.121 505.269 331.756 501.03 331.026 496.82C330.103 491.493 328.749 486.249 327.274 481.052C325.762 475.718 324.197 470.392 322.32 465.173C320.489 460.08 318.328 455.115 316.21 450.137C314.019 444.986 311.915 439.793 309.515 434.734C309.22 434.797 308.922 434.848 308.621 434.898C307.839 435.028 307.073 435.216 306.266 435.267C304.988 435.321 303.722 434.93 302.577 434.389C300.424 433.374 298.664 431.199 298.337 428.81C298.019 426.492 298.75 424.204 299.912 422.216C302.027 418.596 305.947 415.391 310.326 415.52C315.341 415.668 318.244 420.396 318.381 425.008C318.453 427.394 317.449 429.848 315.724 431.497C315.123 432.073 314.543 432.664 313.879 433.162C316.185 437.355 317.955 441.808 319.881 446.18C322.164 451.372 324.415 456.581 326.375 461.904C328.303 467.14 329.873 472.497 331.389 477.864C332.385 481.384 333.312 484.926 334.118 488.496C334.792 481.882 335.609 475.284 336.598 468.71C338.464 456.312 340.831 443.997 342.754 431.608C339.658 431.035 337.532 428.461 336.625 425.485C335.622 422.199 336.723 418.258 338.318 415.324C340.118 412.01 343.255 409.411 347.105 409.1C348.263 409.005 349.408 408.74 350.525 409.15C351.538 409.485 352.733 409.963 353.583 410.615C354.466 411.295 354.861 412.369 355.418 413.327C355.573 413.624 355.721 413.923 355.83 414.239C356.382 414.737 356.661 415.462 356.714 416.203C356.779 417.13 356.964 418.026 356.888 418.964C356.814 419.868 356.572 420.807 356.225 421.646C355.695 422.935 354.949 424.113 354.148 425.216C354.023 425.421 353.918 425.622 353.776 425.835C353.291 426.523 352.753 427.183 352.137 427.756C351.832 428.037 351.526 428.316 351.226 428.581C350.076 429.638 348.758 430.536 347.301 431.102C345.976 442.262 344.092 453.343 342.475 464.461C340.838 475.709 339.647 487.016 338.753 498.345C336.403 528.172 335.522 566.029 346.21 594.211C351.158 603.532 356.201 612.778 361.325 622.005L363.722 626.328C367.315 635.038 372.637 644.872 380.408 650.517L380.609 650.661L380.671 650.902C381.277 653.182 381.884 655.462 382.446 657.755C382.894 658.457 383.358 659.15 383.821 659.842C390.73 670.183 397.967 680.298 404.99 690.564C391.537 631.864 389.359 564.715 396.032 505.213C397.08 495.883 398.216 486.565 399.417 477.255C397.794 471.847 394.208 467.154 390.659 462.859C386.782 458.166 382.834 453.523 379.582 448.36C376.422 443.344 373.804 437.989 371.785 432.412C367.821 421.464 366.048 409.661 367.096 398.04C367.26 396.219 369.688 395.617 370.848 396.95C375.336 402.107 379.727 407.354 383.56 413.028C390.216 422.875 395.512 433.644 399.279 444.92C400.433 448.375 401.457 451.873 402.337 455.405C406.167 427.693 410.45 400.029 414.034 372.29C416.5 353.213 419.26 331.818 418.892 312.32C418.088 314.723 417.241 317.109 416.336 319.476C414.09 325.346 411.606 331.128 408.848 336.775C406.286 342.017 404.007 347.711 400.127 352.148C396.563 356.223 391.425 358.009 386.415 355.319C381.203 352.517 379.681 346.868 379.385 341.372C378.672 328.242 385.446 316.563 391.326 305.366C394.184 299.924 397.234 294.584 400.423 289.328C396.25 292.699 391.956 295.914 387.443 298.824C378.337 304.701 368.586 309.281 357.994 311.718C353.541 312.743 347.188 314.852 343.908 310.229C340.965 306.08 343.102 300.977 344.971 296.902C350.246 285.387 360.699 278.343 371.958 273.499C371.07 273.538 370.181 273.57 369.291 273.598C363.296 273.779 357.288 273.647 351.293 273.434C344.567 273.194 337.849 273.074 331.186 272.029C326.166 271.243 316.678 269.701 315.209 263.836C313.945 258.783 318.247 253.868 321.913 250.996C330.481 244.282 343.38 242.001 354.009 240.78C355.04 240.661 356.072 240.562 357.106 240.481C342.989 236.295 329.422 230.113 318.414 220.111C317.269 219.071 316.718 217.55 317.741 216.221C321.555 211.261 329.121 210.948 334.82 211.613C343.454 212.622 352.089 215.399 360.275 218.28C369.15 221.405 377.796 225.16 386.284 229.216C377.93 222.073 370.395 214.052 362.919 205.991C354.717 197.147 343.781 185.475 342.958 172.93C342.498 165.922 348.34 163.641 354.389 164.622C361.319 165.752 367.806 170.456 373.161 174.782C383.391 183.048 392.84 192.365 401.221 202.498C400.586 200.612 399.978 198.716 399.428 196.802C395.781 184.135 393.448 170.663 393.691 157.451C393.739 154.917 394.225 152.178 396.283 150.477C398.942 148.281 402.683 149.264 405.592 150.333C412.076 152.712 417.877 156.976 422.452 162.123C431.394 172.181 434.659 184.476 436.103 197.407C437.573 192.012 439.121 186.618 441.164 181.407C442.882 177.018 445.175 172.82 448.959 169.868C453.014 166.702 459.047 165.082 463.66 168.039C468.727 171.286 468.77 178.361 468.376 183.688C467.945 189.487 466.058 194.942 463.953 200.314C461.731 205.986 459.214 211.542 456.445 216.969C456.204 217.438 455.96 217.909 455.714 218.379C457.117 216.895 458.546 215.442 460.01 214.021C464.305 209.86 468.859 205.978 473.658 202.415C478.566 198.771 483.597 195.225 489.193 192.713C494.517 190.324 501.141 189.402 505.96 193.426C510.989 197.626 510.801 204.553 508.028 209.974C505.157 215.587 499.929 219.75 495.089 223.615C494.956 223.721 494.823 223.825 494.69 223.929C494.897 223.87 495.102 223.811 495.31 223.756C501.687 222.008 508.031 220.045 514.703 219.913C520.667 219.794 527.307 222.091 530.892 227.096C534.36 231.936 533.057 237.202 528.483 240.66C523.702 244.276 516.974 245.881 511.309 247.7C504.831 249.78 498.278 251.627 491.66 253.214C490.416 253.514 489.169 253.807 487.922 254.096C491.581 253.818 495.239 253.543 498.899 253.263C505.683 252.746 512.452 252.051 519.252 251.75C524.901 251.499 530.783 252.112 535.384 255.736C538.667 258.32 541.961 263.174 539.725 267.41C537.884 270.901 533.273 271.866 529.67 272.215C523.462 272.816 517.088 272.386 510.874 272.036C506.605 271.796 502.345 271.426 498.092 270.972C502.031 272.6 505.911 274.365 509.713 276.29C514.096 278.505 518.478 281.012 522.131 284.33C525.409 287.307 528.596 291.571 528.819 296.153C529.062 301.074 525.604 304.123 520.738 303.578C514.761 302.907 508.72 300.847 502.978 299.087C497.845 297.515 492.763 295.761 487.757 293.819C488.007 293.995 488.258 294.172 488.506 294.352C498.294 301.396 509.951 309.849 515.657 320.683C517.484 324.149 521.38 332.825 515.417 334.458C512.855 335.161 509.963 334.049 507.535 333.23C504.217 332.114 500.907 330.974 497.648 329.697C490.975 327.082 484.442 323.899 478.656 319.631C478.318 319.378 477.981 319.125 477.649 318.866C482.023 326.928 485.725 335.403 488.396 344.174C489.669 348.345 491.718 355.078 487.143 357.981C481.907 361.306 473.968 354.879 470.181 351.531C465.181 347.112 461.177 341.885 457.52 336.333C454.623 331.934 451.923 327.409 449.38 322.798C450.614 328.996 451.648 335.238 452.44 341.508C453.19 347.47 454.278 353.756 453.705 359.761C453.244 364.586 450.297 372.359 444.023 370.183C441.355 369.257 439.028 366.672 437.328 364.493C435.606 362.287 434.217 359.856 433.134 357.279C430.781 351.688 429.563 345.814 428.259 339.92C426.779 333.235 425.543 326.486 424.684 319.692C424.209 315.953 423.844 312.193 423.615 308.424C423.592 308.748 423.567 309.073 423.543 309.397C424.305 336.381 422.98 363.041 419.95 389.853C417.483 411.678 413.933 433.296 410.438 454.962C414.598 446.251 419.568 437.893 426.227 430.848C434.295 422.315 444.475 416.659 454.739 411.217C456.036 410.529 457.859 411.775 457.509 413.245C456.008 419.558 453.929 425.725 451.25 431.636C446.454 442.224 439.839 451.947 431.802 460.336C427.669 464.648 423.316 469.122 418.174 472.221C415.606 473.77 411.904 475.535 408.884 474.434C408.481 474.287 408.11 474.072 407.781 473.806C407.378 477.367 406.99 480.931 406.635 484.5L406.558 485.278L405.793 485.108C405.783 485.107 405.774 485.105 405.765 485.103V485.103ZM450.263 254.461C456.838 253.286 463.472 252.461 470.062 251.362C476.85 250.228 483.598 248.857 490.295 247.275C496.262 245.866 502.183 244.26 508.043 242.462C513.192 240.882 519.38 239.455 523.857 236.44C525.568 235.287 527.31 233.59 526.795 231.324C526.34 229.332 524.33 227.766 522.596 226.874C517.196 224.097 511.206 225.867 505.683 227.162C495.632 229.517 485.788 232.656 476.298 236.592C467.298 242.093 457.982 247.02 448.58 251.789C449.202 252.64 449.769 253.53 450.263 254.461V254.461ZM443.907 246.6C452.9 240.826 462.388 235.891 472.2 231.779C473.651 230.924 475.098 230.101 476.526 229.206C481.444 226.129 486.232 222.837 490.792 219.247C495.069 215.883 499.961 212.158 502.556 207.277C504.819 203.022 505.265 195.857 498.551 195.88C493.045 195.899 488.487 199.33 484.054 202.155C466.765 213.173 453.424 228.355 441.264 244.642C442.196 245.221 443.08 245.877 443.907 246.6ZM433.769 241.574C434.475 241.795 435.164 242.045 435.834 242.31C441.377 233.113 446.712 223.777 451.489 214.152C453.794 209.508 455.999 204.812 457.971 200.017C460.003 195.072 461.954 190.07 462.711 184.744C463.174 181.491 464.246 171.837 459.174 171.571C454.718 171.336 451.065 175.159 448.917 178.638C446.639 182.334 445.307 186.557 443.951 190.654C442.172 196.034 440.588 201.477 439.211 206.975C438.406 210.198 437.695 213.442 437.042 216.634C436.924 224.971 435.989 233.457 433.769 241.574V241.574ZM427.754 240.283C429.942 226.346 431.25 212.589 429.717 198.466C428.335 185.733 425.836 173.783 416.79 164.1C414.711 161.876 412.347 159.888 409.786 158.248C408.06 157.142 402.982 154.033 400.955 154.655C399.41 155.13 399.771 158.624 399.792 159.854C399.842 162.832 400.007 165.805 400.276 168.771C402.054 188.4 408.244 207.48 417.212 224.934C420.018 229.403 422.731 233.948 425.002 238.716C425.207 239.144 425.33 239.603 425.325 240.06C426.137 240.109 426.948 240.183 427.754 240.283ZM406.091 239.076C407.704 239.934 409.299 240.843 410.8 241.884C413.399 240.999 416.149 240.487 418.887 240.221C415.037 234.032 411.622 227.612 408.579 221.04C405.171 215.763 401.502 210.686 397.552 205.803C389.552 195.915 380.563 186.822 370.765 178.722C365.971 174.758 359.844 169.814 353.471 169.128C350.905 168.851 348.409 169.42 348.383 172.447C348.36 174.871 349.22 177.522 350.129 179.758C354.608 190.779 365.048 200.502 373.22 209.014C382.835 219.029 392.882 228.599 404.74 235.937C405.913 236.663 406.568 237.892 406.091 239.076ZM400.612 261.73C398.348 256.232 398.735 250.027 403.426 245.916C403.99 245.42 404.597 244.972 405.225 244.561C403.055 243.476 400.943 242.273 398.799 241.135C394.98 239.11 391.154 237.102 387.291 235.167C379.351 231.197 371.263 227.505 362.977 224.314C354.926 221.21 346.604 218.52 338.109 216.954C334.341 216.259 327.825 215.422 324.475 217.977C346.236 234.1 372.77 239.183 398.891 243.44C402.737 244.069 402.123 249.269 398.331 248.718C397.662 248.621 396.991 248.515 396.322 248.412C395.849 249.59 394.547 249.98 393.224 249.576C380.618 245.729 367.205 244.845 354.171 246.676C348.819 247.43 343.5 248.559 338.334 250.159C334.097 251.469 329.56 253.202 326.126 256.082C324.542 257.411 323.147 259.004 322.203 260.853C321.982 261.286 321.063 262.863 321.293 263.34C321.618 264.027 323.232 264.5 323.902 264.734C330.097 266.895 336.62 267.222 343.115 267.504C353.679 267.961 364.34 268.374 374.896 267.57C383.834 266.891 392.18 264.573 400.612 261.73V261.73ZM410.785 273.114C408.409 271.642 406.228 269.839 404.394 267.726C401.833 268.365 399.288 269.011 396.756 269.664C394.387 270.489 391.992 271.149 389.559 271.641C382.465 273.707 375.395 276.174 368.886 279.712C360.749 284.139 353.317 290.458 349.239 298.933C348.033 301.44 344.391 309.799 350.283 308.964C355.191 308.267 359.983 306.903 364.629 305.193C382.894 298.471 396.65 285.954 410.785 273.114V273.114ZM421.82 277.504C419.769 277.061 417.751 276.438 415.808 275.645C415.74 275.868 415.636 276.084 415.496 276.289C408.163 286.932 401.503 298.031 395.578 309.519C390.36 319.639 384.265 330.211 384.915 342.027C385.121 345.733 386.725 352.945 391.933 351.419C396.507 350.08 398.439 344.663 400.424 340.85C405.622 330.853 409.967 320.424 413.547 309.739C415.374 304.288 416.986 298.765 418.355 293.182C419.631 287.982 420.565 282.707 421.82 277.504V277.504ZM430.644 278.205C429.489 278.278 428.329 278.289 427.173 278.232C427.149 278.426 427.124 278.621 427.097 278.815C428.559 278.847 430.063 279.98 429.805 281.56C427.659 294.744 428.128 308.286 430.084 321.46C430.968 327.419 432.121 333.336 433.47 339.206C434.712 344.601 435.827 350.026 437.947 355.166C438.956 357.613 440.159 359.967 441.806 362.051C442.485 362.908 443.24 363.885 444.111 364.55C445.59 365.68 446.066 364.766 446.827 363.48C449.216 359.448 448.242 353.474 447.799 348.998C446.631 337.18 444.614 325.452 441.867 313.902C440.626 308.685 439.257 303.512 437.751 298.4C435.072 291.776 432.701 285.047 430.644 278.205V278.205ZM437.82 276.661C437.456 276.831 437.091 276.994 436.703 277.121C436.591 277.158 436.478 277.192 436.362 277.223C436.369 277.242 436.376 277.262 436.381 277.28C437.891 281.702 439.35 286.132 440.766 290.57C444.135 299.791 448.121 308.777 452.716 317.453C455.805 323.286 459.067 329.024 462.676 334.551C465.946 339.555 469.583 344.351 474.125 348.272C476.236 350.096 479.574 353.049 482.333 353.628C484.052 353.987 484.239 352.513 484.256 351.173C484.286 348.803 483.235 346.197 482.49 343.956C481.6 341.278 480.642 338.624 479.591 336.005C475.21 325.092 469.447 314.715 462.599 305.164C455.471 295.22 446.988 286.275 438.416 277.582C438.147 277.307 437.94 276.997 437.82 276.661V276.661ZM444.552 273.768C443.863 274.161 443.165 274.519 442.445 274.824C442.747 275.076 443.043 275.335 443.34 275.594C444.237 274.437 446.39 274.474 447.569 275.781C455.786 284.881 462.135 295.415 470.107 304.701C473.567 308.731 477.334 312.475 481.613 315.637C486.852 319.509 492.798 322.351 498.842 324.718C501.97 325.945 505.132 327.073 508.306 328.164C509.493 328.572 510.7 329.08 511.933 329.318C512.099 329.349 512.668 329.511 512.824 329.466C512.871 329.373 512.827 329.119 512.827 329.018C512.804 324.556 508.879 319.214 506.056 315.931C498.342 306.963 487.744 299.771 477.935 293.246C472.484 289.62 466.88 286.231 461.174 283.024C455.645 279.916 449.961 277.087 444.553 273.768H444.552ZM452.093 263.662C451.643 266.502 450.243 269.004 448.226 271.019C449.083 271.351 449.932 271.703 450.776 272.064C451.195 270.842 452.748 270.229 454.135 270.948C465.225 276.705 476.262 282.651 487.806 287.46C497.915 291.671 508.383 295.187 519.061 297.622C520.639 297.983 522.425 298.407 522.623 296.309C522.756 294.909 522.097 293.376 521.409 292.19C519.441 288.798 515.729 286.083 512.438 284.043C503.416 278.455 493.193 274.333 483.159 270.966C476.202 268.629 469.088 266.77 461.886 265.347C460.334 265.041 458.78 264.754 457.22 264.483C455.514 264.188 453.806 263.908 452.093 263.662V263.662ZM459.484 260.061C467.182 261.273 474.776 263.018 482.211 265.28C485.311 265.776 488.395 266.221 491.508 266.624C503.216 268.135 515.157 269.184 526.969 268.777C529.924 268.676 536.061 268.268 536.451 264.399C536.952 259.39 529.498 256.282 525.482 255.78C519.661 255.052 513.833 256.049 508.032 256.479C501.911 256.93 495.791 257.376 489.673 257.828C479.609 258.566 469.548 259.315 459.484 260.061"
            fill="#B56D6D"></path>
    </g>
    <defs>
        <clipPath id="clip0_209_8">
            <rect width="680" height="735" fill="white"></rect>
        </clipPath>
    </defs>
</svg>