<?xml version="1.0" encoding="utf-8"?>
<!DOCTYPE svg PUBLIC "-//W3C//DTD SVG 1.0//EN" "http://www.w3.org/TR/2001/REC-SVG-20010904/DTD/svg10.dtd">
<svg version="1.0" xmlns="http://www.w3.org/2000/svg" width="748px" height="642px" viewBox="0 0 748 642" preserveAspectRatio="xMidYMid meet">
 <g fill="#e6dbe1">
  <path d="M0 321 l0 -321 374 0 374 0 0 321 0 321 -374 0 -374 0 0 -321z m389.55 127.75 c9.40 -1 23.85 -4.20 26.45 -5.85 0.55 -0.35 0.50 -0.40 -0.25 -0.15 -4.50 1.50 -15.65 3.90 -21.45 4.60 -8.40 1.05 -23.85 1.15 -32.05 0.25 -6.25 -0.75 -14 -2.25 -18.70 -3.65 -3.15 -0.95 -4.45 -1.20 -3.95 -0.70 0.45 0.50 8.60 2.65 14 3.75 12.15 2.45 23.80 3 35.95 1.75z m-53.30 -7 c-0.80 -0.40 -1.85 -0.70 -2.25 -0.70 -0.40 0 0.05 0.35 1 0.70 2.30 0.90 3.20 0.85 1.25 0z m83.50 0 c1.95 -0.85 1.05 -0.90 -1.25 0 -0.95 0.35 -1.40 0.70 -1 0.70 0.40 0 1.45 -0.30 2.25 -0.70z m-20.40 -51.25 c13.90 -6.40 26.75 -21.55 30.05 -35.45 0.90 -3.80 0.95 -4.40 0.25 -7.25 -0.35 -1.65 -1.15 -3.80 -1.65 -4.70 -0.60 -0.95 -1 -2.55 -1 -3.75 0.05 -1.90 0.25 -2.25 2.15 -3.55 6.85 -4.80 9.85 -6.80 11.75 -7.75 2.05 -1.05 2.90 -1.80 1.25 -1.20 -1.20 0.50 -11.50 6.50 -13.95 8.20 -3.20 2.20 -4.60 1.95 -8.85 -1.40 -6.25 -4.90 -11.65 -10.80 -12.85 -14.05 -1.30 -3.50 -1.25 -10.30 0.10 -12.95 0.45 -0.90 0.60 -1.65 0.35 -1.65 -0.80 0 -4.90 6 -5.55 8.10 -0.30 1.10 -1.55 3.05 -2.70 4.35 l-2.05 2.30 2.15 -0.20 c1.25 -0.10 2.20 0.05 2.20 0.35 0 1 4.05 5.60 6.60 7.50 1.45 1.05 4.10 2.75 5.90 3.75 6.35 3.60 7.25 4.40 7.40 6.70 l0.15 2.10 -4.40 3 c-17.55 12.05 -29.90 24.35 -34.50 34.35 -1.65 3.65 -1.50 8.10 0.35 10.60 3.45 4.70 10.10 5.70 16.85 2.60z m-133.05 -11.35 c-0.40 -0.75 -0.75 -1.25 -0.80 -1.05 0 0.60 1.15 2.90 1.35 2.70 0.15 -0.10 -0.10 -0.85 -0.55 -1.65z m-3.85 -9.10 c-0.30 -0.90 -0.65 -1.50 -0.75 -1.40 -0.10 0.10 0.05 0.90 0.35 1.80 0.30 0.90 0.65 1.50 0.75 1.40 0.10 -0.10 -0.05 -0.90 -0.35 -1.80z m231.25 -2.55 c0.25 -0.85 0.20 -1 -0.10 -0.50 -0.25 0.40 -0.65 1.30 -0.80 2 -0.25 0.85 -0.20 1 0.10 0.50 0.25 -0.40 0.65 -1.30 0.80 -2z m-233.60 -4.10 c-1.70 -5.30 -3 -10.85 -4.15 -17.65 -1 -5.60 -1.15 -8.35 -1.15 -20 0 -12.35 0.10 -14.15 1.35 -21 0.70 -4.15 1.45 -7.95 1.60 -8.50 0.30 -0.80 0.25 -0.85 -0.20 -0.25 -0.55 0.85 -1.05 2.85 -2.55 10.75 -2 10.60 -1.90 28 0.30 39.50 1.55 8.25 5.05 21.10 5.60 20.55 0.10 -0.15 -0.25 -1.65 -0.80 -3.40z m235.80 -2.25 c3.20 -10.60 4.95 -20.90 5.45 -32 0.20 -5.25 0.15 -7.15 -0.25 -7.15 -0.35 0 -0.60 0.25 -0.60 0.55 0 13.60 -2.30 29.75 -5.80 41.10 -0.15 0.45 -0.15 0.85 -0.05 0.85 0.15 0 0.70 -1.50 1.25 -3.35z m-173.05 -11.35 c0.75 -0.65 3.20 -4.20 5.40 -7.85 5.20 -8.75 11.45 -18.50 14.50 -22.65 2.15 -2.90 2.65 -3.30 4.10 -3.30 1.65 0 1.65 0 1.65 2.40 0 1.30 -0.40 3.35 -0.80 4.60 -0.45 1.25 -0.85 3.85 -0.85 5.85 0 3.05 0.20 4.05 1.60 6.90 2.55 5.15 7.85 8.20 13 7.60 5.15 -0.65 14.15 -4.65 18.35 -8.15 0.80 -0.70 -0.10 -0.25 -2.05 0.95 -7.20 4.55 -10.75 5.85 -15.75 5.80 -6 -0.05 -8.05 -1.50 -9.10 -6.55 -0.55 -2.55 -0.45 -3.55 0.55 -8.45 0.65 -3.10 1.45 -6.50 1.85 -7.60 0.40 -1.10 0.70 -3.25 0.70 -4.85 0 -2.35 -0.20 -3 -1.20 -3.95 -1.60 -1.50 -2.90 -1.20 -6.20 1.40 -5.30 4.20 -16.35 20 -22.85 32.70 -1.40 2.70 -2.40 3.45 -4.35 3.25 l-1.65 -0.15 0.10 -3.65 c0.05 -2 0.50 -5 0.95 -6.75 1 -3.65 6.45 -18.20 10.40 -27.85 1.55 -3.70 2.80 -7.15 2.80 -7.65 0 -0.45 -0.75 -1.30 -1.60 -1.85 -2.10 -1.25 -14.75 -6.80 -16.40 -7.20 -0.95 -0.20 -0.90 -0.15 0.25 0.35 0.80 0.35 3.75 1.65 6.50 2.95 6.20 2.95 6.40 3.55 3.10 8.50 -2.75 4.10 -4.95 9.70 -7.15 18.40 -1.95 7.70 -2.95 15.45 -2.45 19.50 0.50 3.90 2.95 8.50 4.55 8.50 0.35 0 1.25 -0.55 2.05 -1.20z m63.40 -19.50 c3 -2.50 6.75 -6.15 6.75 -6.65 0 -0.20 -5.95 5.05 -9.95 8.80 -2.30 2.15 -0.65 1.05 3.20 -2.15z m199.25 -13.80 c-10.65 -0.40 -19.15 -1.05 -32.25 -2.50 -23.45 -2.60 -25.65 -2.75 -42.75 -2.70 -9.20 0 -17.75 0.20 -18.90 0.50 -1.50 0.30 2.05 0.40 11.25 0.30 7.35 -0.10 16.45 0.05 20.15 0.35 16.85 1.30 26 2.10 28.75 2.55 1.65 0.30 7.30 0.75 12.50 1 5.25 0.30 9.85 0.60 10.25 0.70 0.40 0.10 5.25 0.15 10.75 0.15 l10 0 -9.75 -0.35z m15.15 -0.35 c-0.65 -0.10 -1.75 -0.10 -2.50 0 -0.80 0.10 -0.25 0.20 1.10 0.20 1.40 0 2 -0.10 1.40 -0.20z m14.20 -1.60 c5.35 -1.10 14.10 -3.35 14.50 -3.70 0.10 -0.15 -0.50 -0.50 -1.40 -0.80 -1.40 -0.50 -1.90 -0.40 -3.90 0.75 -2.80 1.55 -10.10 3.55 -16.50 4.45 -4.50 0.65 -4.55 0.70 -1.30 0.50 1.95 -0.10 5.80 -0.65 8.60 -1.20z m-187.80 -9.60 c0.90 -0.90 0.95 -1.15 0.30 -2.10 -0.95 -1.50 -5.10 -3.40 -7.40 -3.45 -1 0 -3.40 0.50 -5.25 1.15 l-3.45 1.20 4.25 0.25 c4 0.25 4.45 0.40 6.75 2.10 2.90 2.15 3.40 2.25 4.80 0.85z m-290.95 -1 c4.20 -0.30 8.55 -0.75 9.65 -1 1.80 -0.40 1.75 -0.40 -0.70 -0.20 -1.50 0.10 -7.60 0.50 -13.50 0.80 -9.50 0.55 -11.70 0.50 -18.25 -0.25 -4.40 -0.50 -7.85 -1.15 -8.50 -1.55 -1.25 -0.90 -3.75 -0.95 -4.95 -0.05 -2.65 2.05 19.85 3.45 36.25 2.25z m24.40 -3 c5.30 -0.90 30.70 -5.70 42 -7.95 10.20 -2 24.65 -4.50 33.75 -5.75 10.15 -1.40 20.25 -1.90 36 -1.65 16.80 0.20 17.35 -0.20 1.45 -1.10 -21.45 -1.25 -42.75 1.20 -82.20 9.50 -22.95 4.80 -27.70 5.70 -36 7 -3.70 0.60 -6.95 1.15 -7.25 1.25 -1.05 0.50 6.75 -0.35 12.25 -1.30z m337.75 -1.80 c-0.55 -2.90 -4.75 -16.20 -5.55 -17.60 -0.40 -0.70 -0.65 -0.95 -0.50 -0.55 0.15 0.40 1.15 3.45 2.20 6.75 1.10 3.30 2.25 7.35 2.55 9 0.75 3.65 0.90 4.25 1.35 4.25 0.15 0 0.15 -0.85 -0.05 -1.85z m-183.75 -6.90 c0 -0.30 -5.15 -1.80 -5.40 -1.55 -0.10 0.10 0.90 0.55 2.25 0.95 2.80 0.85 3.15 0.95 3.15 0.60z m-16.75 -4.75 c-0.55 -0.25 -1.65 -0.40 -2.50 -0.40 -1.45 0 -1.45 0 -0.25 0.40 0.70 0.20 1.80 0.40 2.50 0.40 1.15 0.05 1.15 0 0.25 -0.40z m36 -76.55 c1.10 -0.50 1.45 -0.80 0.75 -0.65 -1.40 0.35 -4 1.65 -3.25 1.65 0.30 0 1.40 -0.45 2.50 -1z m82.25 -2.20 c-0.95 -0.35 -2.10 -0.65 -2.50 -0.65 -0.40 0 0.05 0.30 1 0.65 0.95 0.35 2.10 0.65 2.50 0.65 0.40 0 -0.05 -0.30 -1 -0.65z m-68.75 -2 c1.10 -0.35 1.55 -0.65 1 -0.65 -0.55 -0.05 -2.25 0.40 -3.75 0.90 -3.05 1.05 -0.75 0.85 2.75 -0.25z m65.20 1 c-0.50 -0.45 -9.80 -2.75 -15.20 -3.75 -7 -1.30 -20.15 -2.15 -26 -1.75 -7 0.50 -24.65 3.55 -21.35 3.70 0.35 0.05 3.30 -0.45 6.50 -1.05 5.25 -1 7.40 -1.15 20.85 -1.15 15.85 0.05 20.60 0.50 30.50 3.20 3.55 0.95 5.10 1.25 4.70 0.80z"/>
  <path d="M384.85 388.45 c-2.45 -1.45 -3.10 -7 -1.30 -11.55 2.35 -6.05 9.20 -13.45 21.20 -23.10 11.65 -9.35 16.05 -12.30 18.30 -12.30 l1.95 0 0 3.40 c0 6 -1.90 10.75 -7.70 19.55 -3.30 5.05 -10 13.20 -12.85 15.80 -3.20 2.90 -8.20 6.60 -10.30 7.70 -2.30 1.15 -7.65 1.45 -9.30 0.50z"/>
 </g>
 <g fill="#7b3b5d">
  <path d="M363.10 450.25 c-11.65 -1.35 -19.20 -3.25 -33.10 -8.35 -3.75 -1.35 -17 -8.35 -21.80 -11.50 -14.25 -9.35 -28.90 -24.30 -37.20 -37.90 -9 -14.80 -14 -27.85 -17.20 -44.75 -2.85 -15.10 -2.20 -37.45 1.50 -51.05 0.60 -2.25 0.90 -2.60 2.20 -2.85 2.65 -0.55 3 -0.15 2.15 2.55 -0.35 1.30 -1.30 5.75 -2 9.85 -1.20 6.70 -1.30 8.80 -1.30 19.50 0 15 1.15 23 5.40 36.75 11.70 37.80 43.85 68.90 82.50 79.80 14.15 3.95 30.20 5.40 44.25 3.95 16.85 -1.70 29.80 -5.40 43.75 -12.50 39.95 -20.35 65.35 -60.70 66.45 -105.75 0.10 -4 0.20 -7.30 0.25 -7.35 0.05 -0.10 1 -0.15 2.10 -0.15 l2.10 0 -0.30 8.65 c-1 28.20 -9.95 52.75 -27.15 74.35 -5.50 6.90 -8.55 10.20 -14.20 15.25 -16.55 14.90 -36.40 25 -58.50 29.70 -11.10 2.40 -28 3.15 -39.90 1.80z"/>
  <path d="M387.45 393.55 c-6 -1.25 -9.10 -6.55 -8 -13.50 1.55 -9.50 13.40 -22.65 33.60 -37.20 l1.95 -1.40 0 1.15 c0 1.05 0.20 1.15 2 1 1.75 -0.20 2 -0.35 2 -1.45 0 -1.30 0 -1.30 3.30 -1 2.15 0.20 3.70 0.65 4.55 1.35 0.80 0.65 1.70 0.90 2.40 0.70 1.05 -0.25 1.20 -0.05 1.95 3.25 1 4.45 1 4.60 -0.25 9.85 -3.35 14.20 -15.95 29.10 -30.15 35.75 -2.50 1.20 -4.05 1.55 -7.35 1.70 -2.30 0.10 -5 0.05 -6 -0.20z m5.20 -7.10 c2.10 -1.10 7.10 -4.80 10.30 -7.70 2.85 -2.60 9.55 -10.75 12.85 -15.80 3.75 -5.70 6.10 -10.25 7 -13.70 0.80 -2.85 0.90 -6.25 0.25 -6.25 -0.75 0 -9.25 6.25 -16.80 12.30 -12 9.65 -18.85 17.05 -21.20 23.10 -1.25 3.15 -1.30 4.65 -0.30 6.60 1.40 2.75 4.30 3.25 7.90 1.45z"/>
  <path d="M318.60 352.20 c-1.15 -0.80 -3.60 -5.15 -3.60 -6.30 0.05 -0.85 3.25 -2.85 5.15 -3.25 1.45 -0.30 1.50 -0.30 1.15 1.50 -0.20 0.95 -0.15 1.90 0.10 2.05 0.65 0.40 1.75 -1 3.65 -4.55 1.75 -3.45 2.45 -3.90 2.45 -1.65 0 1 0.35 1.65 1.15 2.05 0.60 0.30 1.15 0.65 1.25 0.70 0.25 0.20 -3.50 6.40 -4.60 7.65 -1.25 1.40 -3.40 2.60 -4.65 2.60 -0.50 0 -1.45 -0.35 -2.05 -0.80z"/>
  <path d="M357.50 343.80 c0 -0.65 0.15 -1.85 0.30 -2.70 0.30 -1.40 0.45 -1.50 1.55 -1.05 1.75 0.65 4.05 0.55 6.90 -0.30 l2.50 -0.80 1.10 1.40 c0.65 0.75 1.15 1.65 1.15 1.95 0 0.80 -7.45 2.70 -10.70 2.70 -2.60 0 -2.80 -0.10 -2.80 -1.20z"/>
  <path d="M314.70 336.65 c0.35 -5.60 1.35 -11.35 3.15 -17.75 0.75 -2.80 1.75 -3.70 2.35 -2.15 0.75 2 3.50 -0.35 4.55 -3.90 0.65 -2.25 0.65 -2.35 -0.85 -4.60 l-1.55 -2.30 2.05 -2.95 2 -2.90 -4.80 -2.35 c-10.50 -5.05 -25.55 -9.10 -38.35 -10.25 -6.60 -0.60 -25.90 -0.60 -33.70 0 -10.45 0.80 -27.70 3.45 -45.55 7 -39.75 7.85 -52.60 9.95 -67.75 11.05 -9.85 0.70 -27.75 0.30 -33.95 -0.80 -6.05 -1.05 -6.90 -1.80 -4.55 -3.95 1.90 -1.75 5.25 -2.10 7.90 -0.85 1.40 0.70 4.50 1.30 8.85 1.85 5.75 0.65 8.25 0.70 16.75 0.20 15.80 -0.90 23.30 -2.10 58.75 -9.50 40.05 -8.40 61.35 -10.80 84.55 -9.55 5.90 0.30 12.15 0.90 13.95 1.25 1.80 0.40 4.50 0.85 6 1.05 2.95 0.35 11.65 2.35 15.75 3.60 9.10 2.75 22.70 8.55 24.70 10.55 1.55 1.55 1.30 2.95 -2.20 11.50 -1.55 3.75 -4.30 10.75 -6.10 15.55 -1.80 4.80 -3.65 9.10 -4.10 9.55 -0.45 0.45 -1.75 1.80 -2.90 3.05 -2.85 2.95 -3.45 3.45 -4.45 3.45 -0.75 0 -0.80 -0.55 -0.50 -5.85z"/>
  <path d="M348.90 340.50 c-3.35 -4.40 -4.10 -8.30 -2.50 -13.05 0.55 -1.50 1.10 -3.70 1.30 -4.90 0.25 -1.80 0.20 -2.10 -0.40 -1.90 -0.60 0.25 -0.70 -0.10 -0.45 -1.55 l0.25 -1.85 -1.30 1.50 c-0.70 0.85 -1.25 1.70 -1.30 1.90 0 0.20 -0.30 0.35 -0.60 0.30 -0.35 -0.05 -1.30 0 -2.15 0.05 l-1.50 0.15 1.65 0.30 1.70 0.30 -0.95 1.25 c-1.05 1.40 -9 13.85 -10.45 16.40 -1.15 2 -1.50 2 -1.90 0.05 -0.80 -4.10 -0.25 -6.80 2.20 -10.45 9.05 -13.60 13.05 -18.25 17.85 -20.70 2.35 -1.15 3.90 -1 5.75 0.65 1.65 1.45 1.65 1.55 1.55 5.55 -0.05 2.20 -0.45 5.10 -0.85 6.40 -0.40 1.30 -1.25 4.60 -1.80 7.35 -1.05 5.15 -2.35 8.75 -3.10 8.75 -0.20 0 -0.40 0.35 -0.40 0.75 0 0.40 -0.20 0.75 -0.45 0.75 -0.30 0 -0.55 0.85 -0.65 1.90 l-0.15 1.85 -1.35 -1.75z"/>
  <path d="M375.50 339.75 c0 -0.40 -0.35 -0.75 -0.75 -0.75 -0.40 0 -0.75 -0.20 -0.75 -0.50 0 -0.25 -0.45 -0.50 -1 -0.50 -1.70 0 -1.10 -0.65 2.60 -2.95 2 -1.25 4.45 -3 5.45 -3.90 1 -0.90 1.95 -1.65 2.15 -1.65 0.15 0 0.30 0.70 0.30 1.50 0 1.15 -0.20 1.50 -1 1.50 -0.60 0 -1 0.35 -1 0.85 0 1.50 -2.45 5 -4.25 6.10 -1.40 0.80 -1.75 0.85 -1.75 0.30z"/>
  <path d="M419 338.75 c0.85 -1 0.25 -1.65 -3.50 -4 -2.95 -1.85 -3.70 -2.75 -2.25 -2.75 0.40 0 0.95 -0.85 1.30 -2 0.35 -1.10 0.80 -2 1.05 -2 0.20 0 1.25 0.75 2.25 1.65 1.05 0.90 2.85 2.40 4 3.25 l2.10 1.65 -1.25 1.20 c-0.65 0.65 -1.20 1.80 -1.20 2.50 0 1.05 -0.20 1.25 -1.55 1.25 -1.35 0 -1.50 -0.10 -0.95 -0.75z"/>
  <path d="M429.10 337 c-0.30 -0.55 -0.60 -1.45 -0.60 -2 0 -0.55 -0.35 -1 -0.75 -1 -1.10 0 -0.90 -0.65 0.40 -1.45 18.10 -11.45 35.85 -18.05 58.10 -21.65 6.35 -1.05 8.70 -1.15 24.75 -1.15 18.15 0 20.35 0.15 43.75 2.75 22.55 2.50 39.05 2.95 50.35 1.35 7.35 -1.05 14.55 -2.90 17.45 -4.55 2.50 -1.45 4.70 -1.65 7.20 -0.55 2.05 0.80 2.70 2 1.65 3.05 -1.80 1.80 -17.35 5.05 -28.90 6 -8.50 0.70 -26 1 -29.20 0.45 -0.85 -0.10 -5.70 -0.45 -10.80 -0.75 -5.10 -0.30 -10.60 -0.70 -12.25 -1 -2.75 -0.45 -11.10 -1.20 -28.75 -2.55 -9.30 -0.75 -29.80 -0.30 -36.50 0.80 -20.75 3.35 -36.95 10.10 -54.40 22.60 -0.75 0.50 -1 0.45 -1.50 -0.35z"/>
  <path d="M389.15 328.40 c0.30 -2.05 0.20 -2.35 -0.60 -2.50 -0.75 -0.10 0.25 -1.35 4.25 -5.30 l5.20 -5.15 0 1.75 c0 0.95 -0.20 1.90 -0.50 2.05 -0.75 0.45 -0.60 1.25 0.25 1.25 0.40 0 0.75 0.20 0.75 0.50 0 0.50 -6.80 7.55 -8.70 9 -0.95 0.70 -0.95 0.65 -0.65 -1.60z"/>
  <path d="M405.30 321 c0.30 -4.25 0.25 -5 -0.40 -5 -0.40 0 -1.15 -0.45 -1.60 -0.95 -0.65 -0.75 -1.30 -0.90 -2.90 -0.70 -1.85 0.25 -1.95 0.20 -1.50 -0.65 0.30 -0.50 1.10 -2.25 1.85 -3.85 2.55 -5.55 8.25 -9.85 15.15 -11.65 5.35 -1.35 11.30 0.30 13.25 3.70 0.85 1.40 0.85 1.85 0.35 3.15 -1.35 3.20 -4.80 3.35 -8.85 0.45 -2.40 -1.70 -3.20 -2 -5.40 -2 -8.10 0 -11.10 11.20 -4.90 18.60 l1.75 2.10 -1.20 0.90 c-0.75 0.55 -2 0.90 -3.55 0.90 l-2.40 0 0.35 -5z"/>
  <path d="M496.35 302.15 c-0.15 -0.25 -0.40 -1.40 -0.60 -2.65 -0.55 -3.40 -3.45 -12.80 -5.80 -18.60 -14.25 -35.80 -45.55 -62.95 -83.40 -72.35 -11.65 -2.90 -15.15 -3.30 -29.55 -3.30 -11.70 0.05 -14 0.15 -19.50 1.20 -31.80 5.90 -58.25 22 -77.15 46.90 -3.40 4.45 -8.85 13.20 -11.30 18.05 l-2.05 4.10 -2.25 0 c-1.25 0 -2.25 -0.10 -2.25 -0.25 0 -0.20 1.50 -3.15 3.30 -6.65 26.70 -51.75 86 -78.45 142.25 -64.10 39.30 10.05 71.05 37.80 86.05 75.25 2.75 6.85 6.35 19.25 6.40 21.90 0 0.65 -0.40 0.85 -1.95 0.85 -1.10 0 -2.10 -0.15 -2.20 -0.35z"/>
 </g>
 <g fill="#4d233c">
  <path d="M378.90 450.65 c0.60 -0.10 1.10 -0.55 1.10 -1 0 -0.40 -0.50 -1.15 -1.10 -1.70 l-1.15 -0.90 1.85 -0.05 c1.55 0 2 0.25 2.75 1.50 0.45 0.85 1.05 1.50 1.25 1.50 0.20 0 0.40 0.25 0.40 0.50 0 0.30 -1.35 0.45 -3.10 0.45 -1.75 -0.05 -2.65 -0.20 -2 -0.30z"/>
  <path d="M349.35 447.30 c-0.45 -1.15 0.90 -2.80 2.25 -2.80 1.05 0 1.10 0.20 0.40 1.55 -0.30 0.50 -0.85 0.95 -1.25 0.95 -0.35 0 -0.75 0.25 -0.85 0.60 -0.15 0.35 -0.35 0.25 -0.55 -0.30z"/>
  <path d="M458.65 420.20 c-0.35 -0.35 -1 -0.85 -1.45 -1.10 -0.55 -0.30 -0.75 -0.80 -0.55 -1.30 0.30 -0.80 0.45 -0.80 1.95 0.05 0.90 0.50 1.75 0.95 1.85 1 0.05 0.05 -0.15 0.50 -0.55 1.05 -0.55 0.80 -0.75 0.85 -1.25 0.30z"/>
  <path d="M282.70 407 c0.20 -0.70 0.40 -1.55 0.40 -1.85 0.05 -0.75 1.70 -0.90 2.10 -0.25 0.15 0.25 -0.45 1.10 -1.30 1.90 l-1.55 1.45 0.35 -1.25z"/>
  <path d="M496.80 352.20 c-1.55 -1.50 -0.40 -2.90 1.20 -1.45 0.55 0.50 1.30 0.75 1.80 0.55 0.60 -0.25 0.75 -0.10 0.50 0.50 -0.15 0.40 -0.30 0.90 -0.30 1 0 0.55 -2.55 0.10 -3.20 -0.60z"/>
  <path d="M315.25 347.05 c-0.15 -0.60 -0.40 -2.45 -0.50 -4.05 -0.15 -2.30 -0.05 -3 0.50 -3 1.90 0 7.90 -8.65 9.45 -13.60 0.30 -1 1.80 -1.25 1.80 -0.25 0 0.60 -1.60 5.15 -2.50 7.10 -0.70 1.60 -2.50 8.45 -2.50 9.65 0 0.65 -0.40 1.30 -0.85 1.45 -1.25 0.50 -4.30 2.60 -4.70 3.25 -0.20 0.30 -0.50 0.10 -0.70 -0.55z"/>
  <path d="M412.75 344.80 c-0.95 -0.70 -0.95 -0.75 0.50 -1.90 0.80 -0.60 2.60 -1.95 4 -2.95 1.60 -1.15 2.45 -2.05 2.35 -2.60 -0.15 -1 1.70 -3.85 2.50 -3.85 0.30 0 0.95 0.35 1.45 0.80 0.80 0.70 1.10 0.65 4 -1.30 l3.10 -2.05 -0.35 2 c-0.25 1.50 -0.10 2.10 0.45 2.45 1 0.55 0.55 1.80 -1.05 2.60 -1.45 0.80 -1.50 1.50 -0.20 3.60 1.25 2.05 1.30 3.40 0.15 3.45 -1.90 0.15 -2.95 -0.15 -4.30 -1.15 -0.80 -0.55 -1.85 -0.90 -2.40 -0.75 -0.50 0.15 -0.95 0.05 -0.95 -0.20 0 -0.25 -0.30 -0.45 -0.70 -0.45 -0.45 0 -0.60 0.35 -0.45 0.95 0.30 1.15 -0.80 1.65 -4.35 1.90 -1.90 0.10 -3.10 -0.05 -3.75 -0.55z"/>
  <path d="M354.40 344.05 c-3 -1.20 -5 -2.65 -5.85 -4.25 -0.65 -1.15 -0.60 -1.40 0.35 -2.20 0.60 -0.55 0.95 -1.10 0.75 -1.25 -0.15 -0.20 0.10 -0.45 0.55 -0.65 0.45 -0.15 0.65 -0.50 0.50 -0.75 -0.15 -0.25 0 -0.45 0.30 -0.45 0.30 0 0.40 -0.20 0.25 -0.50 -0.15 -0.25 -0.05 -0.50 0.25 -0.50 0.30 0 0.40 -0.20 0.25 -0.50 -0.15 -0.25 -0.05 -0.50 0.30 -0.50 0.35 0 0.50 -0.15 0.30 -0.30 -0.55 -0.55 0.75 -3.10 1.70 -3.35 0.80 -0.20 0.95 -0.10 0.70 0.80 -0.20 0.60 -0.45 1.50 -0.55 2 -0.40 1.25 1.10 6.05 2.15 6.95 0.50 0.45 1.50 0.95 2.20 1.15 1.25 0.30 1.30 0.40 0.80 2.80 -0.55 2.85 -1.10 3 -4.95 1.50z"/>
  <path d="M326.65 343.25 c-0.65 -0.45 -1.15 -1.15 -1.15 -1.60 0 -0.45 1.50 -3.40 3.40 -6.50 1.85 -3.15 3.80 -6.45 4.35 -7.40 1.65 -2.85 1.80 -2 0.25 1.30 -1.70 3.65 -2.45 7.85 -1.45 8.50 0.55 0.35 0.40 1 -0.85 3.30 -1.65 3.15 -2.70 3.70 -4.55 2.40z"/>
  <path d="M368.05 341.40 l-1 -1.65 4.10 -2.05 c3.70 -1.90 4.10 -2 4.25 -1.15 0.30 1.65 1.60 1.05 3 -1.40 0.75 -1.30 2.25 -3.25 3.40 -4.35 2.45 -2.45 8.90 -7.80 9.45 -7.80 0.20 0 0.25 0.90 0.15 2 -0.10 1.10 0.05 2.10 0.35 2.20 1.20 0.45 -7.75 8.10 -13.65 11.65 -3.50 2.10 -7.55 4.15 -8.30 4.15 -0.40 0 -1.15 -0.75 -1.75 -1.60z"/>
  <path d="M345.60 333.10 c-0.95 -4.30 -0.55 -8.80 1.25 -13.50 l0.80 -2.15 1.15 1.10 c1.30 1.20 1.45 2.25 0.75 4.65 -0.75 2.45 -2.50 8.90 -2.95 10.80 l-0.45 1.75 -0.55 -2.65z"/>
  <path d="M411.70 332.45 c-4.30 -2.30 -7.95 -5.15 -10.15 -7.95 -1.10 -1.35 -2.10 -2.75 -2.20 -3.10 -0.20 -0.45 -0.70 -0.15 -1.60 0.85 -0.70 0.85 -1.15 1.10 -0.95 0.65 0.20 -0.60 0.05 -0.90 -0.45 -0.90 -0.50 0 -0.90 -0.60 -1.10 -1.65 -0.30 -1.45 -0.10 -1.95 1.25 -3.40 0.85 -0.95 2.05 -2.45 2.65 -3.30 1.35 -2.05 3.15 -2.15 5.25 -0.40 0.85 0.70 1.70 1.25 1.90 1.25 0.25 0 0.80 1.10 1.25 2.45 0.65 1.90 0.65 2.40 0.20 2.20 -0.50 -0.15 -0.60 0.25 -0.40 1.75 0.15 1.20 0.05 2.10 -0.30 2.30 -0.80 0.50 -0.70 1.30 0.15 1.30 0.40 0 1.35 -0.35 2.15 -0.80 l1.40 -0.80 3.10 3.10 3.05 3.05 -0.75 2.25 c-0.40 1.20 -0.90 2.30 -1.15 2.45 -0.20 0.15 -1.70 -0.45 -3.30 -1.30z"/>
  <path d="M252 330.40 c0 -0.80 2.55 -3.40 3.35 -3.40 0.35 0 0.65 0.45 0.65 1 0 0.55 -0.30 1 -0.65 1 -0.35 0 -0.90 0.45 -1.25 1 -0.65 1.10 -2.10 1.35 -2.10 0.40z"/>
  <path d="M339.90 325 c-0.50 -0.45 -0.90 -1.10 -0.90 -1.40 0 -1.25 -1.10 -1.05 -2.55 0.50 -2 2.10 -1.70 1.35 0.80 -2.25 1.45 -2.10 2.25 -2.75 2.90 -2.55 0.45 0.15 1.45 -0.20 2.15 -0.75 1.20 -0.95 3.70 -1.45 3.70 -0.80 0 0.45 -2.35 4 -3.15 4.80 -0.40 0.40 -1 1.30 -1.40 2 -0.65 1.25 -0.75 1.25 -1.55 0.45z"/>
  <path d="M253.40 322.45 c-0.80 -0.55 -1.40 -1.35 -1.40 -1.75 0 -1.05 1.40 -0.85 2.10 0.30 0.35 0.55 0.90 1 1.25 1 0.35 0 0.65 0.35 0.65 0.75 0 1.05 -1 0.90 -2.60 -0.30z"/>
  <path d="M355.60 321.70 c-1.15 -1.25 -0.55 -3.70 0.95 -3.70 1.10 0 1.15 0.15 0.30 2.55 -0.50 1.45 -0.75 1.70 -1.25 1.15z"/>
  <path d="M319.55 319.20 c-0.55 -0.40 -1.05 -1.30 -1.05 -1.95 0 -2.05 4.25 -12.75 5.05 -12.75 0.75 0 3.45 4.70 3.45 6 0 5.50 -4.50 10.75 -7.45 8.70z"/>
  <path d="M462.50 318.45 c-0.55 -1.30 -0.55 -1.60 0.05 -2 0.90 -0.55 1.95 0.75 1.60 2.10 -0.45 1.55 -1 1.55 -1.65 -0.10z"/>
  <path d="M584.95 318.50 c-0.80 -0.55 1.90 -3.50 3.20 -3.50 0.50 0 0.85 0.15 0.75 0.40 -1.20 2.45 -1.65 3.05 -2.40 3.25 -0.50 0.10 -1.20 0.05 -1.55 -0.15z"/>
  <path d="M567.15 317.65 c1.10 -0.30 1.10 -0.80 -0.15 -1.90 -1.25 -1.10 -1.25 -1.60 -0.10 -1.85 0.90 -0.20 4.10 2.55 4.10 3.55 0 0.35 -0.90 0.55 -2.35 0.50 -1.35 -0.05 -2 -0.15 -1.50 -0.30z"/>
  <path d="M482 314.40 c0.05 -1.10 1.70 -2.90 2.90 -3.15 1 -0.15 1.10 -0.05 0.80 0.90 -0.20 0.60 -0.40 1.50 -0.40 2 0 0.65 -0.45 0.85 -1.65 0.85 -1 0 -1.65 -0.25 -1.65 -0.60z"/>
  <path d="M127.90 304.25 c-1.15 -1.55 -1.15 -1.75 0.30 -1.75 1.65 0 2.65 1.25 1.80 2.25 -0.85 1 -1.10 0.95 -2.10 -0.50z"/>
  <path d="M496 300.30 c0 -0.40 0.40 -1.05 0.95 -1.40 0.50 -0.35 0.95 -0.85 1 -1.15 0.10 -1 1.80 -0.50 1.95 0.65 0.10 0.70 -0.10 1.10 -0.55 1.10 -0.40 0 -1 0.35 -1.35 0.75 -0.80 0.95 -2 0.95 -2 0.05z"/>
  <path d="M176.65 299.20 c-0.25 -0.65 3.25 -5.10 3.85 -4.85 0.15 0.10 0.65 0 1.15 -0.15 1.55 -0.50 1.50 0.15 -0.15 1.65 -0.90 0.75 -1.80 1.90 -2 2.45 -0.50 1.30 -2.45 1.90 -2.85 0.90z"/>
  <path d="M220.25 290.15 c-0.70 -0.75 -1.25 -1.55 -1.25 -1.80 0 -0.20 -0.50 -0.60 -1.10 -0.85 -1 -0.40 -0.95 -0.45 0.65 -0.45 2.05 -0.05 3.95 1.60 3.95 3.35 0 1.45 -0.70 1.40 -2.25 -0.25z"/>
  <path d="M294.30 289.15 c-1.20 -1.20 0.45 -3.15 2.65 -3.15 1.35 0 1.30 0.60 -0.10 1.80 -1.60 1.45 -2.15 1.70 -2.55 1.35z"/>
  <path d="M285.55 246.65 c-0.05 -0.35 -0.60 -0.65 -1.25 -0.65 -1.50 0 -2 -0.65 -1.55 -2.10 0.35 -1 0.40 -1 1.85 0.55 0.80 0.85 1.35 1.85 1.25 2.20 -0.20 0.45 -0.30 0.45 -0.30 0z"/>
  <path d="M456 233.05 c0 -0.25 0.60 -0.95 1.30 -1.50 1.05 -0.85 1.45 -0.90 2.25 -0.40 0.80 0.50 0.85 0.65 0.20 0.75 -0.40 0.10 -0.75 0.50 -0.75 0.90 0 0.45 -0.55 0.70 -1.50 0.70 -0.80 0 -1.50 -0.20 -1.50 -0.45z"/>
  <path d="M349.50 205.25 l-1.15 -1.25 1.50 0 c1.10 0 1.65 0.30 2.05 1.25 0.50 1.10 0.45 1.25 -0.30 1.25 -0.50 0 -1.45 -0.55 -2.10 -1.25z"/>
  <path d="M379.35 204.65 c-1.10 -1.05 0.30 -3.20 2.50 -3.85 0.90 -0.30 1 -0.20 0.80 0.70 -0.15 0.55 -0.70 1.25 -1.20 1.55 -0.55 0.25 -0.95 0.80 -0.95 1.20 0 0.80 -0.60 1 -1.15 0.40z"/>
 </g>
</svg>