<?xml version="1.0" encoding="utf-8"?>
<svg version="1.0" xmlns="http://www.w3.org/2000/svg"
     width="748px" height="642px" viewBox="0 0 748 642"
     preserveAspectRatio="xMidYMid meet">

  <!-- Only keeping the darkest lines -->
  <g fill="#4d233c">
    <path d="M378.90 450.65 c0.60 -0.10 1.10 -0.55 1.10 -1 0 -0.40 -0.50 -1.15 -1.10 -1.70 l-1.15 -0.90 1.85 -0.05 c1.55 0 2 0.25 2.75 1.50 0.45 0.85 1.05 1.50 1.25 1.50 0.20 0 0.40 0.25 0.40 0.50 0 0.30 -1.35 0.45 -3.10 0.45 -1.75 -0.05 -2.65 -0.20 -2 -0.30z"/>
    <path d="M349.35 447.30 c-0.45 -1.15 0.90 -2.80 2.25 -2.80 1.05 0 1.10 0.20 0.40 1.55 -0.30 0.50 -0.85 0.95 -1.25 0.95 -0.35 0 -0.75 0.25 -0.85 0.60 -0.15 0.35 -0.35 0.25 -0.55 -0.30z"/>
    <path d="M458.65 420.20 c-0.35 -0.35 -1 -0.85 -1.45 -1.10 -0.55 -0.30 -0.75 -0.80 -0.55 -1.30 0.30 -0.80 0.45 -0.80 1.95 0.05 0.90 0.50 1.75 0.95 1.85 1 0.05 0.05 -0.15 0.50 -0.55 1.05 -0.55 0.80 -0.75 0.85 -1.25 0.30z"/>
    <path d="M282.70 407 c0.20 -0.70 0.40 -1.55 0.40 -1.85 0.05 -0.75 1.70 -0.90 2.10 -0.25 0.15 0.25 -0.45 1.10 -1.30 1.90 l-1.55 1.45 0.35 -1.25z"/>
    <path d="M496.80 352.20 c-1.55 -1.50 -0.40 -2.90 1.20 -1.45 0.55 0.50 1.30 0.75 1.80 0.55 0.60 -0.25 0.75 -0.10 0.50 0.50 -0.15 0.40 -0.30 0.90 -0.30 1 0 0.55 -2.55 0.10 -3.20 -0.60z"/>
    <path d="M315.25 347.05 c-0.15 -0.60 -0.40 -2.45 -0.50 -4.05 -0.15 -2.30 -0.05 -3 0.50 -3 1.90 0 7.90 -8.65 9.45 -13.60 0.30 -1 1.80 -1.25 1.80 -0.25 0 0.60 -1.60 5.15 -2.50 7.10 -0.70 1.60 -2.50 8.45 -2.50 9.65 0 0.65 -0.40 1.30 -0.85 1.45 -1.25 0.50 -4.30 2.60 -4.70 3.25 -0.20 0.30 -0.50 0.10 -0.70 -0.55z"/>
    <path d="M412.75 344.80 c-0.95 -0.70 -0.95 -0.75 0.50 -1.90 0.80 -0.60 2.60 -1.95 4 -2.95 1.60 -1.15 2.45 -2.05 2.35 -2.60 -0.15 -1 1.70 -3.85 2.50 -3.85 0.30 0 0.95 0.35 1.45 0.80 0.80 0.70 1.10 0.65 4 -1.30 l3.10 -2.05 -0.35 2 c-0.25 1.50 -0.10 2.10 0.45 2.45 1 0.55 0.55 1.80 -1.05 2.60 -1.45 0.80 -1.50 1.50 -0.20 3.60 1.25 2.05 1.30 3.40 0.15 3.45 -1.90 0.15 -2.95 -0.15 -4.30 -1.15 -0.80 -0.55 -1.85 -0.90 -2.40 -0.75 -0.50 0.15 -0.95 0.05 -0.95 -0.20 0 -0.25 -0.30 -0.45 -0.70 -0.45 -0.45 0 -0.60 0.35 -0.45 0.95 0.30 1.15 -0.80 1.65 -4.35 1.90 -1.90 0.10 -3.10 -0.05 -3.75 -0.55z"/>
    <path d="M354.40 344.05 c-3 -1.20 -5 -2.65 -5.85 -4.25 -0.65 -1.15 -0.60 -1.40 0.35 -2.20 0.60 -0.55 0.95 -1.10 0.75 -1.25 -0.15 -0.20 0.10 -0.45 0.55 -0.65 0.45 -0.15 0.65 -0.50 0.50 -0.75 -0.15 -0.25 0 -0.45 0.30 -0.45 0.30 0 0.40 -0.20 0.25 -0.50 -0.15 -0.25 -0.05 -0.50 0.25 -0.50 0.30 0 0.40 -0.20 0.25 -0.50 -0.15 -0.25 -0.05 -0.50 0.30 -0.50 0.35 0 0.50 -0.15 0.30 -0.30 -0.55 -0.55 0.75 -3.10 1.70 -3.35 0.80 -0.20 0.95 -0.10 0.70 0.80 -0.20 0.60 -0.45 1.50 -0.55 2 -0.40 1.25 1.10 6.05 2.15 6.95 0.50 0.45 1.50 0.95 2.20 1.15 1.25 0.30 1.30 0.40 0.80 2.80 -0.55 2.85 -1.10 3 -4.95 1.50z"/>
    <path d="M326.65 343.25 c-0.65 -0.45 -1.15 -1.15 -1.15 -1.60 0 -0.45 1.50 -3.40 3.40 -6.50 1.85 -3.15 3.80 -6.45 4.35 -7.40 1.65 -2.85 1.80 -2 0.25 1.30 -1.70 3.65 -2.45 7.85 -1.45 8.50 0.55 0.35 0.40 1 -0.85 3.30 -1.65 3.15 -2.70 3.70 -4.55 2.40z"/>
    <path d="M368.05 341.40 l-1 -1.65 4.10 -2.05 c3.70 -1.90 4.10 -2 4.25 -1.15 0.30 1.65 1.60 1.05 3 -1.40 0.75 -1.30 2.25 -3.25 3.40 -4.35 2.45 -2.45 8.90 -7.80 9.45 -7.80 0.20 0 0.25 0.90 0.15 2 -0.10 1.10 0.05 2.10 0.35 2.20 1.20 0.45 -7.75 8.10 -13.65 11.65 -3.50 2.10 -7.55 4.15 -8.30 4.15 -0.40 0 -1.15 -0.75 -1.75 -1.60z"/>
    <path d="M345.60 333.10 c-0.95 -4.30 -0.55 -8.80 1.25 -13.50 l0.80 -2.15 1.15 1.10 c1.30 1.20 1.45 2.25 0.75 4.65 -0.75 2.45 -2.50 8.90 -2.95 10.80 l-0.45 1.75 -0.55 -2.65z"/>
    <path d="M411.70 332.45 c-4.30 -2.30 -7.95 -5.15 -10.15 -7.95 -1.10 -1.35 -2.10 -2.75 -2.20 -3.10 -0.20 -0.45 -0.70 -0.15 -1.60 0.85 -0.70 0.85 -1.15 1.10 -0.95 0.65 0.20 -0.60 0.05 -0.90 -0.45 -0.90 -0.50 0 -0.90 -0.60 -1.10 -1.65 -0.30 -1.45 -0.10 -1.95 1.25 -3.40 0.85 -0.95 2.05 -2.45 2.65 -3.30 1.35 -2.05 3.15 -2.15 5.25 -0.40 0.85 0.70 1.70 1.25 1.90 1.25 0.25 0 0.80 1.10 1.25 2.45 0.65 1.90 0.65 2.40 0.20 2.20 -0.50 -0.15 -0.60 0.25 -0.40 1.75 0.15 1.20 0.05 2.10 -0.30 2.30 -0.80 0.50 -0.70 1.30 0.15 1.30 0.40 0 1.35 -0.35 2.15 -0.80 l1.40 -0.80 3.10 3.10 3.05 3.05 -0.75 2.25 c-0.40 1.20 -0.90 2.30 -1.15 2.45 -0.20 0.15 -1.70 -0.45 -3.30 -1.30z"/>
    <path d="M252 330.40 c0 -0.80 2.55 -3.40 3.35 -3.40 0.35 0 0.65 0.45 0.65 1 0 0.55 -0.30 1 -0.65 1 -0.35 0 -0.90 0.45 -1.25 1 -0.65 1.10 -2.10 1.35 -2.10 0.40z"/>
    <path d="M339.90 325 c-0.50 -0.45 -0.90 -1.10 -0.90 -1.40 0 -1.25 -1.10 -1.05 -2.55 0.50 -2 2.10 -1.70 1.35 0.80 -2.25 1.45 -2.10 2.25 -2.75 2.90 -2.55 0.45 0.15 1.45 -0.20 2.15 -0.75 1.20 -0.95 3.70 -1.45 3.70 -0.80 0 0.45 -2.35 4 -3.15 4.80 -0.40 0.40 -1 1.30 -1.40 2 -0.65 1.25 -0.75 1.25 -1.55 0.45z"/>
    <path d="M253.40 322.45 c-0.80 -0.55 -1.40 -1.35 -1.40 -1.75 0 -1.05 1.40 -0.85 2.10 0.30 0.35 0.55 0.90 1 1.25 1 0.35 0 0.65 0.35 0.65 0.75 0 1.05 -1 0.90 -2.60 -0.30z"/>
    <path d="M355.60 321.70 c-1.15 -1.25 -0.55 -3.70 0.95 -3.70 1.10 0 1.15 0.15 0.30 2.55 -0.50 1.45 -0.75 1.70 -1.25 1.15z"/>
    <path d="M319.55 319.20 c-0.55 -0.40 -1.05 -1.30 -1.05 -1.95 0 -2.05 4.25 -12.75 5.05 -12.75 0.75 0 3.45 4.70 3.45 6 0 5.50 -4.50 10.75 -7.45 8.70z"/>
    <path d="M462.50 318.45 c-0.55 -1.30 -0.55 -1.60 0.05 -2 0.90 -0.55 1.95 0.75 1.60 2.10 -0.45 1.55 -1 1.55 -1.65 -0.10z"/>
    <path d="M584.95 318.50 c-0.80 -0.55 1.90 -3.50 3.20 -3.50 0.50 0 0.85 0.15 0.75 0.40 -1.20 2.45 -1.65 3.05 -2.40 3.25 -0.50 0.10 -1.20 0.05 -1.55 -0.15z"/>
    <path d="M567.15 317.65 c1.10 -0.30 1.10 -0.80 -0.15 -1.90 -1.25 -1.10 -1.25 -1.60 -0.10 -1.85 0.90 -0.20 4.10 2.55 4.10 3.55 0 0.35 -0.90 0.55 -2.35 0.50 -1.35 -0.05 -2 -0.15 -1.50 -0.30z"/>
    <path d="M482 314.40 c0.05 -1.10 1.70 -2.90 2.90 -3.15 1 -0.15 1.10 -0.05 0.80 0.90 -0.20 0.60 -0.40 1.50 -0.40 2 0 0.65 -0.45 0.85 -1.65 0.85 -1 0 -1.65 -0.25 -1.65 -0.60z"/>
    <path d="M127.90 304.25 c-1.15 -1.55 -1.15 -1.75 0.30 -1.75 1.65 0 2.65 1.25 1.80 2.25 -0.85 1 -1.10 0.95 -2.10 -0.50z"/>
    <path d="M496 300.30 c0 -0.40 0.40 -1.05 0.95 -1.40 0.50 -0.35 0.95 -0.85 1 -1.15 0.10 -1 1.80 -0.50 1.95 0.65 0.10 0.70 -0.10 1.10 -0.55 1.10 -0.40 0 -1 0.35 -1.35 0.75 -0.80 0.95 -2 0.95 -2 0.05z"/>
    <path d="M176.65 299.20 c-0.25 -0.65 3.25 -5.10 3.85 -4.85 0.15 0.10 0.65 0 1.15 -0.15 1.55 -0.50 1.50 0.15 -0.15 1.65 -0.90 0.75 -1.80 1.90 -2 2.45 -0.50 1.30 -2.45 1.90 -2.85 0.90z"/>
    <path d="M220.25 290.15 c-0.70 -0.75 -1.25 -1.55 -1.25 -1.80 0 -0.20 -0.50 -0.60 -1.10 -0.85 -1 -0.40 -0.95 -0.45 0.65 -0.45 2.05 -0.05 3.95 1.60 3.95 3.35 0 1.45 -0.70 1.40 -2.25 -0.25z"/>
    <path d="M294.30 289.15 c-1.20 -1.20 0.45 -3.15 2.65 -3.15 1.35 0 1.30 0.60 -0.10 1.80 -1.60 1.45 -2.15 1.70 -2.55 1.35z"/>
    <path d="M285.55 246.65 c-0.05 -0.35 -0.60 -0.65 -1.25 -0.65 -1.50 0 -2 -0.65 -1.55 -2.10 0.35 -1 0.40 -1 1.85 0.55 0.80 0.85 1.35 1.85 1.25 2.20 -0.20 0.45 -0.30 0.45 -0.30 0z"/>
    <path d="M456 233.05 c0 -0.25 0.60 -0.95 1.30 -1.50 1.05 -0.85 1.45 -0.90 2.25 -0.40 0.80 0.50 0.85 0.65 0.20 0.75 -0.40 0.10 -0.75 0.50 -0.75 0.90 0 0.45 -0.55 0.70 -1.50 0.70 -0.80 0 -1.50 -0.20 -1.50 -0.45z"/>
    <path d="M349.50 205.25 l-1.15 -1.25 1.50 0 c1.10 0 1.65 0.30 2.05 1.25 0.50 1.10 0.45 1.25 -0.30 1.25 -0.50 0 -1.45 -0.55 -2.10 -1.25z"/>
    <path d="M379.35 204.65 c-1.10 -1.05 0.30 -3.20 2.50 -3.85 0.90 -0.30 1 -0.20 0.80 0.70 -0.15 0.55 -0.70 1.25 -1.20 1.55 -0.55 0.25 -0.95 0.80 -0.95 1.20 0 0.80 -0.60 1 -1.15 0.40z"/>
  </g>

</svg>

